<?xml version="1.0" encoding="utf-8"?>
<!-- Generator: Adobe Illustrator 24.1.3, SVG Export Plug-In . SVG Version: 6.00 Build 0)  -->
<svg version="1.1" id="Layer_1" xmlns="http://www.w3.org/2000/svg" xmlns:xlink="http://www.w3.org/1999/xlink" x="0px" y="0px"
	 viewBox="0 0 232 122" style="enable-background:new 0 0 232 122;" xml:space="preserve">
<style type="text/css">
	.st0{fill-rule:evenodd;clip-rule:evenodd;fill:#020202;}
	.st1{fill-rule:evenodd;clip-rule:evenodd;fill:#E95821;}
	.st2{fill-rule:evenodd;clip-rule:evenodd;}
</style>
<path class="st0" d="M23.6,60.9L23.6,60.9c-2.3-1.3-3.2-4.1-1.9-6.4c0.4-0.9,1.2-1.5,2.1-1.9v-6.4l4.9,1.8l-0.3,4.9l0,0
	c2.2,1.4,2.8,4.4,1.4,6.4c-0.3,0.5-0.6,0.9-1.2,1.2v0.8v0.1l2.2,16.9h-9L23.6,60.9L23.6,60.9L23.6,60.9z M15,42.9l23.7,8.5
	c0,0,24.9-14.5,54.9,0l23.4-8.5L66,14.4L15,42.9z"/>
<path class="st1" d="M38.9,83.2c0,5.9,2.8,13.3,12.6,13.3c9.1,0,12.6-6.6,12.6-13.4c0-7.6-4.1-13.5-12.6-13.5
	C43.5,69.7,38.9,74.9,38.9,83.2L38.9,83.2z M44.4,83c0-3.9,1.3-8.9,7.2-8.9c6.4,0,7.2,5.9,7.2,8.9c0,7.5-4.4,9-7.2,9
	c-2.4,0.1-4.6-1.2-5.9-3.2C44.7,87,44.2,85,44.4,83L44.4,83z M71.8,96h5.3V85.2h1c3.5,0,3.9,0.5,7.1,5.2l3.7,5.7h6.3L92,90.9
	c-2.6-4.1-3.6-5.2-5.8-6.3v-0.1c1-0.1,1.9-0.4,3-0.8c2.6-1.2,4.1-3.6,4-6.4c0.1-2.8-1.5-5.5-4.2-6.7c-1.9-0.5-4-0.8-5.9-0.6H71.9
	L71.8,96L71.8,96z M77.1,74.4h4.1c3.5,0,4.2,0,5.2,0.6c0.9,0.5,1.4,1.5,1.3,2.7c0.1,1.4-0.8,2.6-2.1,3.1c-1.5,0.3-3.1,0.4-4.8,0.4
	h-3.9L77.1,74.4L77.1,74.4z M124.8,96l-10.4-26h-5.5L98.7,96h5.7l2.2-5.9H117l2.3,5.9C119.3,96,124.8,96,124.8,96z M108,85.7
	l3.5-9.7l3.6,9.7H108z M131,96h4.9v-17h0.1l10.4,17h5.3V70h-4.9v17.4h-0.1L136.2,70H131L131,96L131,96z M172.3,86.5h6.1v3.2
	c-1.8,1.4-3.9,2.2-6.2,2.2c-6.2,0-7.5-5.4-7.5-9.3c-0.1-2.1,0.4-4,1.4-5.7c1.4-1.9,3.7-3.1,6.2-3c2.7-0.1,5,1.5,5.8,4.1l5.3-1
	c-1.4-6.4-6.8-7.6-11.1-7.6c-9.4,0-12.9,7-12.9,13.4c0,6.8,3.9,13.5,13.3,13.5c4.1,0,8-1.4,11.2-4V82.1h-11.3L172.3,86.5L172.3,86.5
	z M192.2,96H212v-4.4h-14.5v-7.1h13.1v-4.4h-13.1v-5.8h14V70h-19.3L192.2,96L192.2,96z"/>
<path class="st2" d="M38.7,68.2h0.3c1.7-3.6,4.8-6.3,8.6-7.3c6.8-1.9,13.9-0.5,18.5,8.8c0,0,5.2-8.4,9.7-8.9c4.5-0.5,9-1.7,15.5,4.1
	c0.9,1,1.7,2.1,2.2,3.3v-14c0,0-10.7-5.3-18.5-6.1c-7.7-0.6-15.1-1.9-28.5,2.6c0,0-7.1,2.7-7.9,3.1L38.7,68.2z"/>
</svg>
