<svg id="Layer_1" data-name="Layer 1" xmlns="http://www.w3.org/2000/svg" viewBox="0 0 160 63.73766"><title>orange-logo</title><path d="M490.23173,1221.80333v-.03565a3.64422,3.64422,0,0,1,.04578-6.45866l.03565-5.04873,3.84116,1.37429-.1793,3.837.0007.02971a3.64287,3.64287,0,0,1,.19922,5.95851l.01887.55188v.07514l1.74058,13.09873h-7.13008l1.42462-13.32067.0028-.06151Zm-6.69948-13.96831,18.36659,6.5705s19.27009-11.33717,42.61515,0l18.18589-6.5705-39.57123-22.1015Z" transform="translate(-483.53225 -1185.73352)" style="fill:#08434b;fill-rule:evenodd"/><path d="M502.13581,1239.15738c0,4.64748,2.23584,10.3138,9.8458,10.3138,7.09967,0,9.757-5.12527,9.757-10.397,0-5.88686-3.1963-10.45256-9.81329-10.45256-6.28146,0-9.78953,4.08407-9.78953,10.53574Zm4.21549-.10905c0-2.95933.96186-6.93505,5.59885-6.93505,4.98022,0,5.572,4.59191,5.572,6.87563,0,5.83269-3.42209,6.98573-5.572,6.98573a5.095,5.095,0,0,1-4.58352-2.53607,8.24784,8.24784,0,0,1-1.01533-4.39024Zm21.25846,10.088h4.07184v-8.42328h.81961c2.74438,0,2.99987.39006,5.45975,4.0264l2.94081,4.39863,4.89424.00105-2.463-3.9502c-2.038-3.2365-2.83071-3.96768-4.5269-4.93164v-.05662a7.705,7.705,0,0,0,2.2638-.61619,5.16565,5.16565,0,0,0,3.08027-4.9589,5.34484,5.34484,0,0,0-3.30885-5.15673,13.68075,13.68075,0,0,0-4.63979-.50609l-8.59769.00174v20.17183Zm4.075-16.76651h3.196c2.74368,0,3.25187,0,4.01556.45087a2.25609,2.25609,0,0,1,1.04819,2.05584,2.33226,2.33226,0,0,1-1.55534,2.3697,15.57788,15.57788,0,0,1-3.67968.2527l-3.02783-.001v-5.12806Zm37.155,16.76651-8.11745-20.17462H556.395l-7.89237,20.17462H552.86l1.66927-4.56534h8.09054l1.75561,4.56534Zm-13.069-7.9766,2.74438-7.49881,2.80065,7.49881Zm17.893,7.9766h3.79047V1235.974h.05732l8.09054,13.16233h4.09875v-20.17462h-3.78978v13.465h-.05732l-8.23314-13.465h-3.96209v20.17462Zm32.092-7.41668h4.66845v2.53608a8.28459,8.28459,0,0,1-4.7782,1.721c-4.75478,0-5.80088-4.169-5.80088-7.15909A7.862,7.862,0,0,1,600.95,1234.368a5.50007,5.50007,0,0,1,4.75163-2.25471,4.42848,4.42848,0,0,1,4.5276,3.18337l4.07393-.763c-1.10166-4.9589-5.34616-5.91482-8.62739-5.91482-7.3286,0-10.03943,5.43809-10.03943,10.369,0,5.29862,2.96737,10.48016,10.26417,10.48016a13.52332,13.52332,0,0,0,8.65815-3.12675v-8.03287l-8.79761.001v3.4102Zm15.37755,7.41668h15.38839v-3.40845H625.2083V1240.258h10.182v-3.40811h-10.182v-4.47727H636.154v-3.40811h-15.0207v20.17183Z" transform="translate(-483.53225 -1185.73352)" style="fill:#e95821;fill-rule:evenodd"/><path d="M501.91073,1227.56751h.22508a10.05533,10.05533,0,0,1,6.73688-5.68274c5.2808-1.52563,10.83876-.37468,14.39472,6.77567,0,0,4.01731-6.48453,7.5086-6.87983,3.49059-.39425,7.03256-1.34947,12.02292,3.22007a9.65415,9.65415,0,0,1,1.69793,2.56683l.01713-10.88421s-8.34918-4.14523-14.3748-4.66041c-6.02666-.51518-11.74226-1.51794-22.14623,1.98454,0,0-5.49086,2.05059-6.09307,2.40255Z" transform="translate(-483.53225 -1185.73352)" style="fill:#08434b;fill-rule:evenodd"/><path d="M636.4878,1227.002m3.52625-6.95811a3.57608,3.57608,0,0,1,1.73079.45891,3.19851,3.19851,0,0,1,1.31871,1.29984,3.58,3.58,0,0,1,.4687,1.76819,3.53583,3.53583,0,0,1-.4687,1.749,3.20828,3.20828,0,0,1-1.29984,1.29984,3.47661,3.47661,0,0,1-1.74966.46835,3.53892,3.53892,0,0,1-1.75876-.46835,3.2711,3.2711,0,0,1-1.29984-1.29984,3.53452,3.53452,0,0,1-.46765-1.749,3.58715,3.58715,0,0,1,.47779-1.76819,3.19645,3.19645,0,0,1,1.31871-1.29984,3.57418,3.57418,0,0,1,1.72975-.45891Zm0,.58264a2.9428,2.9428,0,0,0-1.44245.38236,2.63422,2.63422,0,0,0-1.09992,1.08979,2.89271,2.89271,0,0,0-.00873,2.92473,2.71183,2.71183,0,0,0,1.08873,1.08978,2.92236,2.92236,0,0,0,2.92578,0,2.71183,2.71183,0,0,0,1.08873-1.08978,2.916,2.916,0,0,0,.38237-1.45258,3.00019,3.00019,0,0,0-.39145-1.47215,2.68425,2.68425,0,0,0-1.09957-1.08979,2.96925,2.96925,0,0,0-1.44349-.38236Zm-1.54765,4.88445h.6113v-1.605h.36349a.79952.79952,0,0,1,.48757.12373,3.12141,3.12141,0,0,1,.64.88881l.33484.59243h.74516l-.45856-.74516a4.27037,4.27037,0,0,0-.56377-.74587,1.04917,1.04917,0,0,0-.325-.20027,1.21715,1.21715,0,0,0,.79339-.34462,1.01247,1.01247,0,0,0,.29639-.72629.99176.99176,0,0,0-.17231-.554.95138.95138,0,0,0-.47779-.36349,3.32546,3.32546,0,0,0-.97479-.1052H638.4664v3.78488Zm.6113-2.13133h.74621a1.211,1.211,0,0,0,.72594-.16218.51347.51347,0,0,0,.19118-.41138.50344.50344,0,0,0-.09611-.30617.491.491,0,0,0-.25759-.19118,1.78033,1.78033,0,0,0-.612-.06641h-.69763Z" transform="translate(-483.53225 -1185.73352)" style="fill:#2b2a29;fill-rule:evenodd"/></svg>