<svg xmlns="http://www.w3.org/2000/svg" width="51.199" height="18.923" viewBox="0 0 51.199 18.923"><defs><style>.a{fill:#fff;}.b{fill:none;stroke:#fff;stroke-miterlimit:10;stroke-width:0.5px;}</style></defs><g transform="translate(-2439 -5759)"><path class="a" d="M474.923,274.39a.426.426,0,0,1-.335.5l-.335.167a.744.744,0,0,0-.292.21.946.946,0,0,0-.125.461v9.67q0,.5-1.006.5a1.461,1.461,0,0,1-.5-.041.728.728,0,0,1-.461-.418l-6.154-8.374V284.1a.531.531,0,0,0,.294.459,2.048,2.048,0,0,0,.335.168l.251.126a.4.4,0,0,1,.292.419.511.511,0,0,1-.126.377.41.41,0,0,1-.377.167h-2.469a.852.852,0,0,1-.461-.126.538.538,0,0,1-.168-.418.482.482,0,0,1,.335-.419l.251-.083c.21-.084.335-.168.378-.3a.511.511,0,0,0,.126-.375v-8.415c0-.126-.168-.251-.419-.461-.084-.041-.21-.083-.377-.167l-.294-.126a.435.435,0,0,1-.292-.461.441.441,0,0,1,.21-.377.538.538,0,0,1,.418-.168h2.93a.734.734,0,0,1,.5.168,1.292,1.292,0,0,1,.335.335l5.064,6.823v-5.525a.729.729,0,0,0-.375-.586l-.419-.21-.167-.084c-.168-.084-.211-.21-.211-.418a.58.58,0,0,1,.127-.377.673.673,0,0,1,.377-.127h2.469c.419,0,.67.168.67.461Zm13.479,8.08a2.94,2.94,0,0,1-1.088,2.471,3.073,3.073,0,0,1-2.008.879h-7.411a.855.855,0,0,1-.461-.126.463.463,0,0,1-.208-.418.442.442,0,0,1,.167-.419l.126-.041c.084-.041.168-.125.335-.21.167-.168.251-.294.251-.377v-8.75a.613.613,0,0,0-.21-.334,1.52,1.52,0,0,0-.335-.21l-.083-.084a.313.313,0,0,1-.21-.335c-.041-.167.041-.292.21-.418a.773.773,0,0,1,.544-.168l6.909.043a3.884,3.884,0,0,1,1.883.837,2.066,2.066,0,0,1,.879,1.716A2.457,2.457,0,0,1,486.184,279l-.753.334.543.168a3.137,3.137,0,0,1,2.428,2.971Zm-3.809-6.027c0-.671-.461-1.09-1.339-1.3a5.6,5.6,0,0,0-.8-.084,4.265,4.265,0,0,0-1.047.167c-.208.126-.334.21-.334.251v3.852l.5-.126a5.1,5.1,0,0,0,2.093-.963,2.2,2.2,0,0,0,.921-1.8Zm.669,5.943a2.408,2.408,0,0,0-.628-1.506,2.023,2.023,0,0,0-.922-.628l-.251-.084-2.428.545V284.1a.5.5,0,0,0,.251.375.8.8,0,0,0,.5.17l1.214-.043a2.555,2.555,0,0,0,1.506-.545,2.166,2.166,0,0,0,.753-1.675Zm15.615-.25a3.528,3.528,0,0,1-1.757,2.889,6.756,6.756,0,0,1-3.6,1.046,5.647,5.647,0,0,1-2.6-.5,5.023,5.023,0,0,1-1.842-1.3l-.126-.167a1.14,1.14,0,0,1-.294-.837.836.836,0,0,1,.461-.837.778.778,0,0,1,.335-.084.877.877,0,0,1,.712.378l.292.418a5.676,5.676,0,0,0,.837.963,3.547,3.547,0,0,0,1.969.67,3.235,3.235,0,0,0,1.842-.419,1.571,1.571,0,0,0,.92-1.34v-.21a1.743,1.743,0,0,0-.418-.879,2.063,2.063,0,0,0-.964-.5c-.334-.084-.753-.21-1.3-.335l-1.381-.294a3.748,3.748,0,0,1-2.178-1.3,2.951,2.951,0,0,1-.794-2.051,3.571,3.571,0,0,1,1.214-2.512,4.7,4.7,0,0,1,3.516-1.3,9.03,9.03,0,0,1,1.633.167,9.688,9.688,0,0,1,1.716.545l.126.041a1.1,1.1,0,0,1,.628.5,1.266,1.266,0,0,1,.084.459l.041,1.3c.043.21-.083.335-.335.418-.041.043-.084.043-.167.043a.446.446,0,0,1-.419-.167l-.083-.084a7.379,7.379,0,0,1-.543-.8,3.084,3.084,0,0,0-.672-.753,3.552,3.552,0,0,0-1.506-.461.827.827,0,0,0-.335-.041,2.023,2.023,0,0,0-1.465.586,1.451,1.451,0,0,0-.5,1,1.315,1.315,0,0,0,.5,1.006,2.912,2.912,0,0,0,1.173.628l.586.167c.628.125,1.214.292,1.8.461a5.237,5.237,0,0,1,1.424.544,3.343,3.343,0,0,1,1.465,2.932Zm12.434,1.716-.543,1.716c-.041,0-.083.041-.167.126a.566.566,0,0,1-.294.126h-8.5a.637.637,0,0,1-.461-.167.516.516,0,0,1-.041-.8l.126-.083a.607.607,0,0,0,.335-.211.391.391,0,0,0,.25-.334v-8.75a.429.429,0,0,0-.167-.334c-.083-.043-.167-.126-.334-.21l-.126-.084a.374.374,0,0,1-.21-.335c0-.375.251-.586.753-.586h7.745a1.17,1.17,0,0,1,.628.127.639.639,0,0,1,.253.459l.125,1.424c0,.21-.125.377-.462.461a.642.642,0,0,1-.5-.084l-.418-.459a3.112,3.112,0,0,0-.377-.378,2.383,2.383,0,0,0-.922-.292,7.7,7.7,0,0,0-1.8-.084h-.418a1.426,1.426,0,0,0-.5.168.651.651,0,0,0-.292.461V278.7h2.681a1,1,0,0,0,.418-.084c.126-.126.292-.208.5-.377a.489.489,0,0,1,.419-.083.448.448,0,0,1,.459.5v1.3c0,.377-.126.586-.459.628a.379.379,0,0,1-.378-.084,4.505,4.505,0,0,0-.543-.335.945.945,0,0,0-.418-.126H506.99v3.643a.863.863,0,0,0,.377.669,1.281,1.281,0,0,0,.586.251l.251.043c.168,0,.5.041,1.006.041.461,0,.753-.041.92-.041l.251-.043a2.823,2.823,0,0,0,.755-.335,1.673,1.673,0,0,0,.628-.5,4.063,4.063,0,0,1,.418-.459l.083-.084a.673.673,0,0,1,.672-.126.559.559,0,0,1,.375.586v.167Z" transform="translate(1976.469 5485.366)"/><path class="a" d="M462.68,286.7h.377v-2.512h.043l.712,2.512h.628v-2.93H464.1v2.512h-.084l-.669-2.512h-.67Zm3.516-1.465c0-.5-.167-.712-.585-.712a2.591,2.591,0,0,0-.671.126v.294s.419-.043.628-.043c.167,0,.251.084.251.335v.126l-.418.041a.576.576,0,0,0-.586.669c0,.419.167.67.5.67a1.1,1.1,0,0,0,.543-.167.576.576,0,0,0,.461.167v-.334a.2.2,0,0,1-.126-.21Zm-.377.459v.588a1.3,1.3,0,0,1-.418.083c-.126,0-.21-.126-.21-.294a.292.292,0,0,1,.251-.334Zm1.718-.752v-.377h-.461v-.629h-.335v.629h-.251v.377h.251v1c0,.629.084.8.461.8a3.284,3.284,0,0,0,.377-.041l-.041-.377h-.253c-.208,0-.208-.084-.208-.419v-.961Zm.292,1.757h.377v-2.134h-.377Zm0-2.512h.377v-.461h-.377Zm1.506.335c-.586,0-.753.419-.753,1.088,0,.712.167,1.13.753,1.13.545,0,.755-.418.755-1.13,0-.669-.21-1.088-.755-1.088Zm0,1.842c-.335,0-.377-.251-.377-.753s.084-.712.377-.712.377.21.377.712-.083.753-.377.753Zm1.466.335v-1.675a.939.939,0,0,1,.377-.083c.25,0,.292.208.292.626V286.7h.377v-1.131c0-.71-.126-1.046-.586-1.046a1.029,1.029,0,0,0-.459.168v-.126h-.378V286.7Zm2.72-1.465c0-.5-.167-.712-.586-.712a2.185,2.185,0,0,0-.669.126v.294s.418-.043.628-.043c.167,0,.251.084.251.335v.126l-.419.041a.576.576,0,0,0-.586.669c0,.419.168.67.5.67a1.105,1.105,0,0,0,.543-.167.572.572,0,0,0,.461.167v-.334a.194.194,0,0,1-.126-.21Zm-.377.459v.588a1.316,1.316,0,0,1-.419.083c-.126,0-.208-.126-.208-.294a.291.291,0,0,1,.251-.334Zm.837,1.006h.377v-3.014h-.377Zm1.632-2.93v2.93h.88c.461,0,.712-.251.712-.837,0-.377-.126-.586-.294-.67.168-.126.251-.292.251-.669,0-.545-.251-.753-.712-.753Zm.837,1.632c.21,0,.377.126.377.461s-.126.419-.334.419h-.545v-.88Zm0-1.214c.21,0,.335.126.335.419,0,.251-.084.418-.335.418h-.5v-.837Zm1.8.335c-.545,0-.712.419-.712,1.088,0,.712.167,1.13.712,1.13.586,0,.753-.418.753-1.13,0-.669-.167-1.088-.753-1.088Zm0,1.842c-.292,0-.377-.251-.377-.753s.084-.712.377-.712c.335,0,.419.21.419.712s-.084.753-.419.753Zm2.387-1.13c0-.5-.168-.712-.586-.712a2.185,2.185,0,0,0-.669.126v.294s.418-.043.626-.043c.168,0,.253.084.253.335v.126l-.419.041a.576.576,0,0,0-.586.669c0,.419.168.67.5.67a1.105,1.105,0,0,0,.543-.167.572.572,0,0,0,.461.167v-.334a.194.194,0,0,1-.125-.21Zm-.377.459v.588a1.316,1.316,0,0,1-.419.083c-.126,0-.208-.126-.208-.294a.291.291,0,0,1,.251-.334Zm.837,1.006h.334v-1.508a5.615,5.615,0,0,1,.586-.208v-.461a1.413,1.413,0,0,0-.586.292v-.25H481.1Zm2.553-3.014h-.377v.88a3.22,3.22,0,0,0-.377-.043c-.461,0-.712.335-.712,1.13s.208,1.088.628,1.088a1.044,1.044,0,0,0,.461-.167v.126h.377Zm-.753,2.638c-.21,0-.335-.126-.335-.671q0-.753.377-.753a2.215,2.215,0,0,1,.335.043v1.3a1.235,1.235,0,0,1-.377.084Zm2.595-1.8c-.544,0-.753.419-.753,1.088,0,.712.167,1.13.753,1.13s.753-.418.753-1.13c0-.669-.208-1.088-.753-1.088Zm0,1.842c-.292,0-.377-.251-.377-.753s.084-.712.377-.712.377.21.377.712-.083.753-.377.753Zm1.549-1.422h.461v-.377h-.461v-.127c0-.294.041-.377.21-.377h.251v-.377s-.251-.041-.335-.041c-.377,0-.5.167-.5.795v.127H486.5v.377h.167V286.7h.377Zm2.679-.88a4.47,4.47,0,0,0-.669-.084c-.419,0-.712.21-.712.755,0,.459.208.628.669.795.294.084.419.167.419.418s-.126.419-.377.419a3.728,3.728,0,0,1-.629-.083l-.041.334a3.1,3.1,0,0,0,.671.126c.418,0,.71-.251.71-.837,0-.461-.167-.628-.585-.753-.378-.125-.5-.208-.5-.459,0-.211.167-.337.419-.337.168,0,.586.041.586.041Zm.963.629c-.461,0-.671.292-.671,1,0,.755.168,1.047.629,1.047a3,3,0,0,0,.5-.083l-.041-.335a2.292,2.292,0,0,1-.335.041c-.335,0-.419-.167-.419-.67,0-.459.084-.628.419-.628.084,0,.335.043.335.043l.041-.335a3.169,3.169,0,0,0-.461-.083Zm1.088,2.009v-1.549a.928.928,0,0,1,.378-.084c.208,0,.251.21.251.586V286.7h.334v-1.047c0-.628-.083-.961-.543-.961a1.031,1.031,0,0,0-.419.167v-.922h-.335V286.7Zm1.967-2.009c-.5,0-.669.375-.669,1,0,.67.126,1.047.669,1.047s.67-.377.67-1.047c0-.628-.167-1-.67-1Zm0,1.673c-.292,0-.335-.208-.335-.67s.084-.628.335-.628.335.168.335.628-.041.67-.335.67Zm1.633-1.673c-.5,0-.671.375-.671,1,0,.67.126,1.047.671,1.047s.669-.377.669-1.047c0-.628-.167-1-.669-1Zm0,1.673c-.294,0-.335-.208-.335-.67s.041-.628.335-.628c.251,0,.335.168.335.628s-.041.67-.335.67Zm1.046.335h.335v-2.763h-.335Zm1.465,0h1.341v-.377h-1.006v-.8h.8v-.377h-.8v-.755h1.006v-.377h-1.341Zm1.508-1.967.461,1-.461.963h.335l.335-.671.292.671h.335l-.418-1.006.418-.961h-.335l-.292.669-.335-.669Zm2.722.628c0-.461-.168-.669-.545-.669a2.134,2.134,0,0,0-.628.124l.041.294s.377-.043.545-.043.251.043.251.294v.126l-.419.041c-.335.041-.5.167-.5.586s.167.628.461.628a1.31,1.31,0,0,0,.5-.126.617.617,0,0,0,.418.126v-.334c-.084,0-.126-.043-.126-.168Zm-.335.418v.545a1.237,1.237,0,0,1-.378.084c-.126,0-.208-.126-.208-.294a.279.279,0,0,1,.208-.294Zm1.088.922v-1.508a.658.658,0,0,1,.335-.126c.21,0,.251.21.251.628V286.7h.335v-1.006a1.417,1.417,0,0,0-.043-.5.918.918,0,0,1,.377-.126c.21,0,.251.21.251.586V286.7h.337v-1.047c0-.669-.127-.961-.546-.961a.941.941,0,0,0-.5.208.463.463,0,0,0-.419-.208.779.779,0,0,0-.377.167v-.126h-.335V286.7Zm2.218,0h.335v-1.967h-.335Zm0-2.3h.335v-.418h-.335Zm1.088,2.3v-1.508a.665.665,0,0,1,.335-.126c.251,0,.294.21.294.586V286.7h.334v-1.047c0-.628-.125-.961-.543-.961a.8.8,0,0,0-.419.167v-.126h-.335V286.7Zm2.471-1.34c0-.461-.126-.669-.5-.669a2.163,2.163,0,0,0-.629.124v.294s.378-.043.586-.043c.168,0,.21.043.21.294v.126l-.377.041c-.335.041-.5.167-.5.586s.125.628.462.628a.992.992,0,0,0,.459-.126.7.7,0,0,0,.419.126v-.334c-.084,0-.126-.043-.126-.168Zm-.335.418v.545a1.235,1.235,0,0,1-.377.084c-.126,0-.168-.126-.168-.294s.043-.251.211-.294Zm1.591-.669v-.377h-.418v-.545h-.337v.545h-.208v.377h.208v.92c0,.545.125.712.462.712a2.359,2.359,0,0,0,.292-.041v-.335h-.251c-.167,0-.167-.083-.167-.378v-.877Zm.292,1.591h.335v-1.967h-.335Zm0-2.3h.335v-.418h-.335Zm1.341.3c-.5,0-.67.375-.67,1,0,.67.127,1.047.67,1.047s.669-.377.669-1.047c0-.628-.167-1-.669-1Zm0,1.673c-.294,0-.335-.208-.335-.67s.041-.628.335-.628c.251,0,.334.168.334.628s-.041.67-.334.67Zm1.34.335v-1.508a.657.657,0,0,1,.334-.126c.251,0,.294.21.294.586V286.7h.334v-1.047c0-.628-.125-.961-.543-.961a.8.8,0,0,0-.418.167v-.126h-.335V286.7Z" transform="translate(1976.32 5490.138)"/><line class="b" x2="51.198" transform="translate(2439 5777.673)"/><line class="b" x2="51.198" transform="translate(2439 5772.984)"/></g></svg>