<svg xmlns="http://www.w3.org/2000/svg" width="48.953" height="22.819" viewBox="0 0 48.953 22.819"><defs><style>.a,.b{fill:#fefefe;}.a{fill-rule:evenodd;}</style></defs><g transform="translate(-464.255 -274.576)"><path class="a" d="M495.612,286.02v.676a6.723,6.723,0,1,1-.386-1.867h-3.573a3.108,3.108,0,0,0-2.767-1.642,3.712,3.712,0,0,0,.032,7.4,2.875,2.875,0,0,0,2.993-2.028h-3.766V286.02Z" transform="translate(2.437 0.787)"/><path class="a" d="M501.24,280.387a6.5,6.5,0,1,1-.032,13,6.442,6.442,0,0,1-6.565-6.34,6.728,6.728,0,0,1,.481-2.672,6.48,6.48,0,0,1,6.115-3.991Zm.032,10.2h0a3.715,3.715,0,0,0-.032-7.4,3.483,3.483,0,0,0-3.411,3.67,3.534,3.534,0,0,0,3.443,3.733Z" transform="translate(4.114 0.787)"/><path class="a" d="M472.732,293a.951.951,0,1,1,0,1.9.941.941,0,0,1-.965-.933.849.849,0,0,1,.1-.386.965.965,0,0,1,.869-.58Zm.032,1.482h0a.5.5,0,0,0,.483-.515.507.507,0,0,0-.483-.547.489.489,0,0,0-.515.514.518.518,0,0,0,.515.548Z" transform="translate(1.017 2.495)"/><path class="a" d="M473.779,293.029h.579c.355,0,.451.033.58.131a.641.641,0,0,1,.225.514.561.561,0,0,1-.45.578l.483.613h-.515l-.418-.58h-.033v.58h-.451v-1.836Zm.451.934h.193a.265.265,0,0,0,.291-.29c0-.161-.129-.226-.291-.226h-.193Z" transform="translate(1.289 2.498)"/><path class="a" d="M475.78,294.607l-.1.258h-.516l.74-1.836h.386l.708,1.836h-.482l-.1-.258Zm.128-.387h.386l-.193-.611h0Z" transform="translate(1.478 2.498)"/><path class="a" d="M477.039,293.029h.419l.707,1.159h0l-.032-1.159h.451v1.835H478.2l-.709-1.127h0v1.127h-.45Z" transform="translate(1.731 2.498)"/><path class="a" d="M480.675,293.838v.1a1,1,0,1,1-.064-.29H480.1a.428.428,0,0,0-.419-.225.481.481,0,0,0-.483.514.492.492,0,0,0,.483.548c.258,0,.419-.1.451-.291h-.547v-.354Z" transform="translate(1.957 2.495)"/><path class="a" d="M480.752,293.029h1v.419h-.579v.289h.579v.386h-.579v.323h.579v.418h-1Z" transform="translate(2.234 2.498)"/><path class="a" d="M484.611,293.838v.1a.929.929,0,0,1-.965.966.949.949,0,0,1-.966-.966.923.923,0,0,1,.966-.933.99.99,0,0,1,.932.644h-.546a.41.41,0,0,0-.386-.225.506.506,0,0,0-.516.514.515.515,0,0,0,.516.548c.224,0,.386-.1.417-.291h-.546v-.354Z" transform="translate(2.495 2.495)"/><path class="a" d="M484.693,293.029h.482v1.417h.547v.418h-1.029Z" transform="translate(2.767 2.498)"/><path class="a" d="M486.735,293a.95.95,0,1,1-.966.966,1.63,1.63,0,0,1,.066-.386.979.979,0,0,1,.9-.58Zm0,1.482h0a.506.506,0,0,0,.515-.515.513.513,0,0,0-.515-.547.481.481,0,0,0-.483.514.492.492,0,0,0,.483.548Z" transform="translate(2.913 2.495)"/><path class="a" d="M487.782,293.029h.58c.29,0,.45.033.579.194a.454.454,0,0,1,.1.289.406.406,0,0,1-.193.354.442.442,0,0,1,.29.451.6.6,0,0,1-.161.386.868.868,0,0,1-.611.161h-.58v-1.836Zm.452.708h.16c.065,0,.193,0,.193-.16,0-.129-.128-.129-.193-.129h-.16v.29Zm0,.708h.225c.065,0,.225,0,.225-.161s-.16-.161-.225-.161h-.225Z" transform="translate(3.185 2.498)"/><path class="a" d="M489.722,294.607l-.1.258h-.481l.739-1.836h.354l.74,1.836h-.514l-.1-.258Zm.129-.387h.386l-.194-.611h0Z" transform="translate(3.37 2.498)"/><path class="a" d="M491.014,293.029h.451v1.417h.547v.418h-1Z" transform="translate(3.623 2.498)"/><path class="a" d="M493.794,293a.951.951,0,1,1,0,1.9.941.941,0,0,1-.966-.933.849.849,0,0,1,.1-.386.968.968,0,0,1,.87-.58Zm.032,1.482h0a.5.5,0,0,0,.482-.515.508.508,0,0,0-.482-.547.488.488,0,0,0-.514.514.517.517,0,0,0,.514.548Z" transform="translate(3.868 2.495)"/><path class="a" d="M494.869,293.029h.45v1.417h.548v.418h-1Z" transform="translate(4.145 2.498)"/><path class="a" d="M496.238,294.188l-.547-1.159h.515l.291.741.257-.741h.514l-.547,1.159v.676h-.483Z" transform="translate(4.256 2.498)"/><path class="a" d="M497.335,293.029h.58l.386,1.191h0l.355-1.191h.611v1.835h-.45l.032-1.384h0l-.387,1.384h-.322l-.386-1.384h0v1.384h-.419Z" transform="translate(4.479 2.498)"/><path class="a" d="M499.4,293.029h.612a.863.863,0,0,1,.547.131.578.578,0,0,1,.225.481.608.608,0,0,1-.193.483.787.787,0,0,1-.546.161h-.193v.58H499.4v-1.836Zm.452.838h.193c.1,0,.29,0,.29-.226,0-.193-.193-.193-.29-.193h-.193v.419Z" transform="translate(4.759 2.498)"/><rect class="b" width="0.482" height="1.835" transform="translate(505.837 295.528)"/><path class="a" d="M502.138,294.607l-.1.258h-.483l.74-1.836h.353l.741,1.836h-.515l-.1-.258Zm.129-.387h.385l-.193-.611h0Z" transform="translate(5.051 2.498)"/><path class="a" d="M503.4,293.029h.612a.894.894,0,0,1,.8.355.835.835,0,0,1,.161.546.846.846,0,0,1-.932.934H503.4v-1.836Zm.452,1.417h.225c.354,0,.451-.226.451-.483a.654.654,0,0,0-.1-.354.378.378,0,0,0-.354-.161h-.225Z" transform="translate(5.3 2.498)"/><path class="a" d="M505.724,281.665H505.5v-.257h.741v.257h-.225v.9h-.29Z" transform="translate(5.584 0.925)"/><path class="a" d="M506.321,281.408h.354l.225.772h.032l.226-.772h.354v1.158h-.257V281.7h0l-.258.869H506.8l-.225-.869h0v.869h-.257Z" transform="translate(5.695 0.925)"/><path class="a" d="M474.331,282.033l.612.161.965-.033.322-.546.482.1,1.158-.129.322-.353.483-.29.644.1.225-.032a6.479,6.479,0,0,0-2.606-.644,10.2,10.2,0,0,0-1.675.8l.065.033.386-.129.226.386-.9.227-.29-.193c-.484.321-.773.546-.773.546-.16.1-.353.225-.515.321l.322-.032.547-.29Zm2.7-1h0l.644-.387.452.259-.645.483-.58.033-.257-.162.386-.225Zm5.149,2.254a6.39,6.39,0,0,1,1.126,3.637,6.587,6.587,0,0,1-5.021,6.372l.128-.451,1.128-.74.291-.8.771-.354.741-1.416-1.159-.676-.58-.677-.352-.032-.677-.193-.612-.1-.514.16-.321-.353-.355-.1.033-.483h-.386l-.226.258-.128-.547.514-.225.514.225h.291l.1-.386.8-.965,1.1-.548.611.1.065-.322-.773-.772-.321-.611h-.419l-.258-.161-.579-.065-.128.677-.707-.129-.033-.419.514-.128.194-.772.516.225v.321l.417.162.259.1.321-.194-.289-.353-.612-.58.033-.288.611.128.515.483.16.418.128.387.839.739.224.065.291-.483,1.029-.065.193-.064Zm-4.7,7.048h0l-.451-.87.419-.9-.419-.161-.514-.481-1.095-.226-.354-.772v.45h-.161l-.933-1.288v-1.029l-.708-1.126-1.093.193H471.4a7.694,7.694,0,0,0-1.095,1.512,5.639,5.639,0,0,0-.128,1.288,6.551,6.551,0,0,0,6.565,6.565,7.177,7.177,0,0,0,.837-.065l-.1-.8s.321-1.158.321-1.223c0-.032-.321-1.062-.321-1.062Z" transform="translate(0.802 0.783)"/><path class="a" d="M479.543,274.769l-10.043,2.7-5.084,9.044,2.863-.773a7.693,7.693,0,0,1-.385,7.113h-.129a.307.307,0,0,0-.225.29l-2,.708a2.27,2.27,0,0,0,1.642,1.737l.676-2.155c.033,0,.033,0,.065-.033a.259.259,0,0,0,.193-.354v-.033c1.481-2.027,1.319-5.632.451-7.338l1.963-.514-1.384-1.769c-.226-.291,1.223-1.9,3.314-3.413a12.491,12.491,0,0,0-2.9,3.413.31.31,0,0,0,.033.288l1.867,2.672a.141.141,0,0,1-.032-.1.993.993,0,0,1,.128-.29,4.244,4.244,0,0,1,.676-.869,11.4,11.4,0,0,1,1.094-1.095c.225-.194.451-.387.676-.58s.451-.386.708-.579c.225-.193.483-.354.708-.547.257-.16.483-.321.739-.483.225-.16.452-.321.677-.451s.45-.258.644-.353a7.562,7.562,0,0,1,1.03-.451,1.182,1.182,0,0,1,.321-.033.472.472,0,0,1,.1.065l-.967-1.223,2.576-4.6Zm-12.681,7.049-1.288,2.254-1.319,2.253,1.255-2.286,1.256-2.284,2.51-4.506.033-.033h.032l5.021-1.351c1.674-.419,3.346-.869,5.021-1.288-1.641.484-3.315.933-4.989,1.416l-4.989,1.352-2.542,4.473Z"/></g></svg>