<?xml version="1.0" encoding="utf-8"?>
<!-- Generator: Adobe Illustrator 24.1.3, SVG Export Plug-In . SVG Version: 6.00 Build 0)  -->
<svg version="1.1" id="Layer_1" xmlns="http://www.w3.org/2000/svg" xmlns:xlink="http://www.w3.org/1999/xlink" x="0px" y="0px"
	 viewBox="0 0 92.4 42.6" style="enable-background:new 0 0 92.4 42.6;" xml:space="preserve">
<style type="text/css">
	.st0{fill-rule:evenodd;clip-rule:evenodd;fill:#FFFFFF;}
	.st1{fill-rule:evenodd;clip-rule:evenodd;}
	.st2{fill:none;stroke:#FEFEFE;stroke-width:0.68;stroke-miterlimit:10;}
	.st3{fill-rule:evenodd;clip-rule:evenodd;fill:#EC5707;}
	.st4{fill:#FEFEFE;}
	.st5{fill:#FFFFFF;}
</style>
<path class="st0" d="M71.5,21.3H21.8c-3.3,0-6-2.7-6-6V6c0-3.3,2.7-6,6-6h49.6c3.3,0,6,2.7,6,6v9.3C77.5,18.6,74.8,21.3,71.5,21.3z"
	/>
<g transform="translate(-2401 -3794)">
	<g transform="translate(1988.602 3531.986)">
		<path class="st1" d="M452.4,275.1v-3.7l5.6-2l-12.3-6.8l-12.3,6.8l5.7,2v3.7h0.1c0.6-1.2,1.8-1.9,3.2-1.9c1.9,0,2.5,0.9,3.4,2.3
			c1-1.3,1.4-2.3,3.4-2.3C450.5,273.2,451.7,273.9,452.4,275.1L452.4,275.1z"/>
		<path class="st1" d="M436,271.6c0.6,0,1.1,0.5,1.1,1.1s-0.5,1.1-1.1,1.1c-0.6,0-1.1-0.5-1.1-1.1c0,0,0,0,0,0
			C434.9,272.1,435.4,271.6,436,271.6C436,271.6,436,271.6,436,271.6z"/>
		<path class="st1" d="M435.5,273.7l0-3.6l1.2,0.3l-0.1,1.3l0.1,2v0l0.6,4.1H435L435.5,273.7L435.5,273.7z"/>
		<path class="st2" d="M439.1,271.5c4.1-2,9-2,13.1,0"/>
		<path class="st3" d="M439.2,278.8c0.1,1.7,1.6,3,3.3,2.8c1.7-0.1,3-1.6,2.8-3.3c-0.1-1.6-1.4-2.8-3-2.8
			C440.3,275.5,439.2,276.8,439.2,278.8z M440.5,278.8c0-0.9,0.3-2.2,1.7-2.2c1.5,0,1.7,1.4,1.7,2.1c0,1.8-1.1,2.2-1.7,2.2
			c-0.6,0-1.1-0.3-1.4-0.8C440.6,279.7,440.5,279.2,440.5,278.8L440.5,278.8z M447.1,281.9h1.3v-2.6h0.3c0.9,0,0.9,0.1,1.7,1.3
			l0.9,1.4h1.5l-0.8-1.2c-0.3-0.6-0.8-1.2-1.4-1.5v0c0.2,0,0.5-0.1,0.7-0.2c0.6-0.3,1-0.9,1-1.5c0-0.7-0.4-1.3-1-1.6
			c-0.5-0.1-1-0.2-1.4-0.2h-2.7L447.1,281.9L447.1,281.9z M448.4,276.7h1c0.9,0,1,0,1.3,0.2c0.2,0.1,0.3,0.4,0.3,0.6
			c0,0.3-0.2,0.6-0.5,0.7c-0.4,0.1-0.8,0.1-1.1,0.1h-1L448.4,276.7L448.4,276.7z M459.9,281.9l-2.5-6.3H456l-2.5,6.3h1.3l0.5-1.4
			h2.5l0.5,1.4H459.9z M455.8,279.4l0.9-2.3l0.9,2.3H455.8z M461.4,281.9h1.2v-4.1h0l2.5,4.1h1.3v-6.3h-1.2v4.2h0l-2.6-4.2h-1.2
			L461.4,281.9L461.4,281.9z M471.4,279.6h1.4v0.8c-0.4,0.3-0.9,0.5-1.5,0.5c-1.5,0-1.8-1.3-1.8-2.2c0-0.5,0.1-1,0.3-1.4
			c0.3-0.5,0.9-0.7,1.5-0.7c0.6,0,1.2,0.4,1.4,1l1.3-0.2c-0.3-1.2-1.5-2-2.7-1.8c-1.8,0.1-3.2,1.5-3.1,3.3c0.1,1.7,1.5,3.1,3.2,3.1
			c1,0,1.9-0.3,2.7-1v-2.5h-2.7L471.4,279.6L471.4,279.6z M476.1,281.9h4.8v-1.1h-3.5v-1.7h3.2v-1.1h-3.2v-1.4h3.4v-1.1h-4.7
			L476.1,281.9L476.1,281.9z"/>
	</g>
	<g transform="translate(1969.293 3522.732)">
		<path class="st4" d="M435,301.3c1.8,0,3.3-1.5,3.3-3.3s-1.5-3.3-3.3-3.3s-3.3,1.5-3.3,3.3C431.7,299.8,433.1,301.3,435,301.3
			C435,301.3,435,301.3,435,301.3z M435,295.4c1.4,0,2.6,1.1,2.7,2.6c0,1.4-1.1,2.6-2.6,2.7c-1.4,0-2.6-1.1-2.7-2.6c0,0,0,0,0,0
			C432.4,296.6,433.6,295.4,435,295.4C435,295.4,435,295.4,435,295.4z M439.4,301.2h0.7v-2.1c0-0.4,0-0.7,0.2-1.1
			c0.1-0.2,0.3-0.3,0.6-0.3c0.1,0,0.3,0.1,0.4,0.1l0.3-0.6c-0.2-0.1-0.4-0.2-0.6-0.2c-0.4,0-0.7,0.2-0.9,0.5v-0.4h-0.7V301.2z
			 M445.1,297.8c-0.3-0.4-0.8-0.7-1.4-0.7c-1.2,0.1-2,1.1-1.9,2.3c0.1,1,0.9,1.8,1.9,1.9c0.5,0,1-0.2,1.4-0.7v0.6h0.7v-4h-0.7V297.8
			z M443.8,297.8c0.8,0.1,1.4,0.8,1.3,1.6c-0.1,0.7-0.6,1.2-1.3,1.3c-0.7,0-1.3-0.6-1.3-1.4c0,0,0-0.1,0-0.1
			c-0.1-0.7,0.4-1.4,1.2-1.4C443.7,297.8,443.8,297.8,443.8,297.8L443.8,297.8z M447.1,301.2h0.7v-2.1c0-0.4,0.1-0.8,0.3-1.1
			c0.2-0.2,0.4-0.3,0.7-0.3c0.3,0,0.5,0.1,0.7,0.3c0.1,0.2,0.2,0.5,0.2,0.7v2.4h0.7v-2.4c0-0.4,0-0.7-0.2-1.1
			c-0.3-0.4-0.7-0.6-1.1-0.5c-0.4,0-0.9,0.2-1.1,0.6v-0.5h-0.7L447.1,301.2z M454.6,297.8c-0.3-0.4-0.8-0.7-1.4-0.7
			c-0.5,0-1,0.2-1.4,0.5c-0.4,0.4-0.6,1-0.6,1.5c0,0.6,0.2,1.1,0.6,1.6c0.4,0.3,0.9,0.5,1.4,0.5c0.5,0,1-0.2,1.4-0.7v0.6
			c0,0.4-0.1,0.7-0.2,1c-0.2,0.4-0.6,0.6-1,0.5c-0.7,0-1.2-0.4-1.3-1.1c0,0,0-0.1,0-0.1h-0.7c0,0.5,0.2,0.9,0.5,1.3
			c0.4,0.4,0.9,0.5,1.4,0.5c0.6,0,1.2-0.3,1.6-0.7c0.3-0.5,0.4-1,0.4-1.5v-3.9h-0.7L454.6,297.8z M453.3,297.8
			c0.3,0,0.6,0.1,0.9,0.3c0.3,0.3,0.4,0.7,0.4,1.1c0,0.4-0.2,0.8-0.5,1.1c-0.2,0.2-0.5,0.3-0.9,0.3c-0.3,0-0.6-0.1-0.9-0.3
			c-0.3-0.3-0.5-0.7-0.5-1.2c0-0.4,0.1-0.8,0.4-1.1C452.6,297.9,453,297.8,453.3,297.8L453.3,297.8z M459.5,299.9
			c-0.1,0.2-0.2,0.4-0.4,0.5c-0.2,0.2-0.5,0.3-0.8,0.3c-0.7,0-1.3-0.6-1.3-1.3c0,0,0,0,0-0.1h3.1c0-0.5-0.1-1-0.4-1.5
			c-0.4-0.5-0.9-0.7-1.5-0.7c-1.1,0-1.9,0.9-1.9,1.9c0,0.1,0,0.1,0,0.2c-0.1,1.1,0.8,2,1.9,2.1c0.5,0,1-0.2,1.4-0.5
			c0.2-0.2,0.4-0.4,0.5-0.6L459.5,299.9z M457.1,298.8c0.1-0.6,0.6-1,1.2-1c0.6,0,1.1,0.4,1.2,1H457.1z M466.8,294.9h-3.3v6.4h3.3
			v-0.7h-2.6v-2.5h2.5v-0.7h-2.5v-1.9h2.6L466.8,294.9z M471,297.8c-0.3-0.4-0.8-0.7-1.4-0.7c-1.2,0.1-2,1.1-1.9,2.3
			c0.1,1,0.9,1.8,1.9,1.9c0.5,0,1-0.2,1.4-0.7v0.6h0.7v-6.9H471V297.8z M469.7,297.8c0.8,0.1,1.4,0.8,1.3,1.6
			c-0.1,0.7-0.6,1.2-1.3,1.3c-0.7,0-1.3-0.6-1.3-1.4c0,0,0-0.1,0-0.1c-0.1-0.7,0.4-1.4,1.2-1.4C469.6,297.8,469.7,297.8,469.7,297.8
			L469.7,297.8z M473.6,297.3h-0.7v2.4c-0.1,0.4,0.1,0.9,0.4,1.2c0.7,0.7,1.8,0.7,2.4,0c0.3-0.3,0.4-0.8,0.4-1.2v-2.4h-0.7v2.3
			c0,0.3,0,0.6-0.2,0.9c-0.4,0.4-1,0.4-1.3,0c0,0,0,0,0,0c-0.2-0.3-0.2-0.6-0.2-0.9L473.6,297.3z M480.5,297.6
			c-0.4-0.3-0.8-0.4-1.2-0.4c-1.2,0-2.1,0.9-2.1,2c0,1.2,0.9,2.1,2,2.1c0,0,0.1,0,0.1,0c0.4,0,0.9-0.2,1.2-0.4v-0.8
			c-0.3,0.4-0.8,0.6-1.3,0.6c-0.8-0.1-1.4-0.8-1.4-1.6c0.1-0.7,0.6-1.3,1.4-1.4c0.5,0,0.9,0.2,1.2,0.6L480.5,297.6z M484.6,297.8
			c-0.3-0.4-0.8-0.7-1.4-0.7c-1.2,0.1-2,1.1-1.9,2.3c0.1,1,0.9,1.8,1.9,1.9c0.5,0,1-0.2,1.4-0.7v0.6h0.7v-4h-0.7V297.8z
			 M483.3,297.8c0.8,0.1,1.4,0.8,1.3,1.6c-0.1,0.7-0.6,1.2-1.3,1.3c-0.7,0-1.3-0.6-1.3-1.4c0,0,0-0.1,0-0.1
			c-0.1-0.7,0.4-1.4,1.2-1.4C483.2,297.8,483.3,297.8,483.3,297.8L483.3,297.8z M488,297.9v-0.6h-0.7v-1.4h-0.7v1.4h-0.4v0.6h0.4
			v3.3h0.7v-3.3H488z M488.6,297.3v4h0.7v-4H488.6z M488.5,295.8c0,0.3,0.2,0.5,0.5,0.5c0.3,0,0.5-0.2,0.5-0.5
			c0-0.3-0.2-0.5-0.5-0.5C488.7,295.3,488.5,295.5,488.5,295.8C488.5,295.8,488.5,295.8,488.5,295.8z M492.4,301.3
			c1.2,0,2.1-0.9,2.1-2.1c0-1.2-0.9-2.1-2.1-2.1c-1.1,0-2.1,0.9-2.1,2.1c0,1.1,0.8,2.1,2,2.1C492.4,301.3,492.4,301.3,492.4,301.3z
			 M492.4,297.8c0.7,0,1.4,0.6,1.4,1.3c0,0,0,0.1,0,0.1c0,0.8-0.7,1.4-1.5,1.3c-0.8,0-1.4-0.7-1.3-1.5
			C491.1,298.3,491.7,297.8,492.4,297.8z M495.6,301.2h0.7v-2.1c0-0.4,0.1-0.8,0.3-1.1c0.2-0.2,0.4-0.3,0.7-0.3
			c0.2,0,0.5,0.1,0.6,0.3c0.1,0.2,0.2,0.5,0.2,0.7v2.4h0.7v-2.4c0-0.4,0-0.7-0.2-1.1c-0.5-0.6-1.4-0.7-2-0.2
			c-0.1,0.1-0.2,0.1-0.2,0.2v-0.5h-0.7L495.6,301.2z M502.4,294.9v6.4h0.7v-2.8h0.6c1,0.1,1.9-0.5,2-1.5c0-0.1,0-0.2,0-0.3
			c0-0.5-0.2-1-0.6-1.4c-0.5-0.3-1-0.5-1.6-0.5L502.4,294.9z M503.2,295.5h0.5c0.5,0,1.4,0.1,1.4,1.1c0,0.7-0.5,1.1-1.3,1.1h-0.6
			V295.5z M506,297.3l1.9,4.2l2-4.2h-0.8l-1.2,2.7l-1.2-2.7H506z M512,297.9v-0.6h-0.7v-1.4h-0.7v1.4h-0.4v0.6h0.4v3.3h0.7v-3.3H512
			z M515.1,294.9v6.4h2.4v-0.7h-1.7v-5.7L515.1,294.9z M519.7,297.9v-0.6H519v-1.4h-0.7v1.4h-0.4v0.6h0.4v3.3h0.7v-3.3H519.7z
			 M523.4,297.8c-0.3-0.4-0.8-0.7-1.3-0.7c-1.2,0.1-2,1.1-1.9,2.3c0.1,1,0.9,1.8,1.9,1.9c0.5,0,1-0.2,1.3-0.7v0.6h0.7v-6.9h-0.7
			V297.8z M522.1,297.8c0.8,0.1,1.4,0.8,1.3,1.6c-0.1,0.7-0.6,1.2-1.3,1.3c-0.7,0-1.3-0.6-1.3-1.4c0,0,0-0.1,0-0.1
			c-0.1-0.7,0.4-1.4,1.2-1.4C522,297.8,522.1,297.8,522.1,297.8L522.1,297.8z"/>
		<path class="st5" d="M444.5,310.3C444.5,310.3,444.5,310.2,444.5,310.3l0-0.1c0-0.1,0-0.1,0-0.2c0-0.1,0-0.1,0.1-0.1
			c0,0,0,0,0.1,0c0,0,0.1,0,0.2-0.1c0,0,0.1-0.1,0.1-0.1c0,0,0-0.1,0-0.1c0,0,0-0.1,0-0.1c0,0,0.1-0.1,0.1-0.1
			c0-0.1,0.1-0.2,0.1-0.3c0.1-0.1,0.1-0.4,0.2-0.7c0-0.1,0-0.2,0.1-0.2c0-0.1,0-0.1,0.1-0.2c0-0.1,0.1-0.3,0.2-0.4
			c0-0.1,0.1-0.1,0.1-0.1v0l-0.1-0.2l0.1-0.2l0.2,0c0,0,0.1,0,0.1-0.1c0-0.1,0.1-0.1,0.1-0.2c0,0,0,0,0.1,0c0,0,0.1-0.1,0.1-0.1
			c0,0,0.1-0.1,0.1-0.1c0,0,0.1,0,0.1,0c0,0,0.1,0,0.1,0c0,0,0,0.1,0,0.1c0,0.1,0,0.2-0.1,0.2c0,0.1-0.1,0.2-0.1,0.2c0,0,0,0,0,0.1
			s0,0,0,0l0.4,0.2c0,0,0,0,0.1,0.1c0,0.1,0,0.2,0,0.3c0,0.1,0,0.2,0,0.2c0,0,0,0.1,0,0.1c0,0.1,0,0.2,0,0.3c0,0.1,0,0.3,0.1,0.4
			c0,0.1,0,0.3,0,0.4c0,0,0,0,0,0c0,0,0,0,0,0c0,0,0.1,0,0.1,0c0,0,0,0.1,0,0.1c0,0,0,0.1,0,0.1c0,0,0,0,0,0.1c0,0-0.1,0-0.1,0l0,0
			l0,0.2l-0.1,0.5c0,0.1,0,0.1,0,0.2c0,0.1,0,0.2,0,0.2c0,0.1,0,0.1-0.1,0.2c0,0,0,0.1,0,0.1c0,0,0,0.1,0,0.1c0,0.1,0,0.1,0,0.2
			s0,0.1,0,0.2c0,0.1-0.1,0.1-0.1,0.2c0,0-0.1,0.1-0.1,0.1c0,0,0,0-0.1,0c0,0,0-0.1,0-0.1c0,0,0-0.1,0-0.1c0,0,0-0.1,0-0.1
			c0,0,0-0.1,0-0.1v-0.1c0-0.1,0-0.2,0-0.3c0-0.1,0-0.2,0-0.3c0,0,0-0.1,0-0.1c0,0,0-0.1,0-0.1v-0.1l0-0.1l0-0.3l0,0c0,0,0,0-0.1,0
			c0,0-0.1,0-0.1,0.1c0,0-0.1,0-0.1,0c-0.1,0-0.2,0-0.2,0c0,0-0.1,0-0.1,0.1c0,0-0.1,0-0.2,0.1s-0.2,0.1-0.3,0.1
			c-0.1,0-0.1,0.1-0.2,0.1c0,0-0.1,0-0.1,0c0,0-0.1,0-0.1,0c0,0-0.1,0.1-0.1,0.1c0,0.1,0,0.1,0,0.2c0,0.1-0.1,0.1-0.1,0.3
			c0,0,0,0.1,0,0.1c0,0.1,0,0.1-0.1,0.2c0,0,0,0.1,0,0.1c0,0,0,0.1-0.1,0.2v0.1c0,0,0,0.1,0,0.1c0,0,0,0.1-0.1,0.1
			c0,0.1,0,0.1-0.1,0.2c0,0,0,0.1-0.1,0.1c0,0-0.1,0-0.1,0c0,0-0.1,0-0.1,0c0,0,0-0.1,0-0.1c0-0.1,0-0.1,0-0.2c0-0.1,0-0.2,0.1-0.3
			c0-0.1,0.1-0.2,0.1-0.3c0-0.1,0-0.1,0-0.2c0,0,0,0,0-0.1c0-0.1,0-0.1,0.1-0.2c0-0.1,0-0.1,0.1-0.2l0,0l-0.1,0c0,0,0,0-0.1,0
			c0,0,0,0,0-0.1L444.5,310.3C444.5,310.3,444.5,310.3,444.5,310.3L444.5,310.3z M445.8,309.6c0.1,0,0.2,0,0.2,0c0.1,0,0.2,0,0.3,0
			c0,0,0.1,0,0.1,0l0.2,0c0.1,0,0.1,0,0.2,0c0,0,0,0,0,0c0,0,0,0,0,0v-0.2c0-0.1,0-0.1,0-0.1c0-0.1,0-0.1,0-0.2l0-0.2l0-0.1
			c0-0.1,0-0.1,0-0.1c0,0,0-0.1,0-0.1c0,0,0,0,0,0c0,0,0,0,0-0.1s0-0.1-0.1-0.1c0,0,0-0.1-0.1-0.1c0,0-0.1-0.1-0.1-0.1
			c0,0-0.1,0-0.1,0c0,0-0.1,0-0.1,0.1c-0.1,0.1-0.1,0.2-0.1,0.3c0,0,0,0.1-0.1,0.1c-0.1,0.1-0.1,0.2-0.1,0.2c0,0.1,0,0.2-0.1,0.3
			c-0.1,0.2-0.2,0.3-0.2,0.5c0,0,0,0,0,0v0c0,0,0,0,0,0c0,0,0,0,0,0c0,0,0.1,0,0.1,0L445.8,309.6z M447.7,310.6L447.7,310.6
			L447.7,310.6c0.1-0.1,0.1-0.2,0.1-0.2c0,0,0.1,0,0.1-0.1c0,0,0,0,0.1-0.1c0,0,0.1,0,0.2-0.1l0.1,0c0,0,0.1-0.1,0.1-0.1
			c0-0.1,0.1-0.1,0.1-0.2c0,0,0,0,0.1,0c0,0,0,0,0.1-0.1c0.1-0.1,0.2-0.2,0.3-0.4c0,0,0.1-0.1,0.1-0.1c0.1,0,0.2-0.1,0.3-0.2
			c0,0,0.1,0,0.1-0.1c0.1,0,0.1,0,0.2-0.1c0,0,0.1,0,0.1-0.1c0,0,0-0.1,0-0.1c0,0,0-0.1,0-0.1c0-0.1,0-0.1,0.1-0.2
			c0-0.1,0-0.1,0.1-0.2s0-0.1,0-0.1c0-0.1,0.1-0.3,0.2-0.4c0.1-0.1,0.1-0.3,0.3-0.5l0.2-0.3c0-0.1,0.1-0.1,0.1-0.1
			c0.1,0,0.1,0,0.2,0c0,0,0.1,0,0.1,0c0,0,0,0.1,0,0.1c0,0.1,0,0.2,0,0.3c0,0.1,0,0.2-0.1,0.3c0,0,0,0,0,0.1c0,0,0,0.1,0,0.1
			c0,0,0,0.1,0,0.1c0,0,0,0.1-0.1,0.1s0,0,0,0.1c0,0,0,0,0,0.1l0,0.1c0,0,0,0,0,0v0.1c0,0,0,0.1,0,0.1c0,0,0,0.1-0.1,0.2
			c0,0.1-0.1,0.1-0.1,0.2l0,0.1c0,0,0,0,0,0.1c0,0,0,0.1-0.1,0.1l0,0.1l-0.2,0.8c0,0.1,0,0.2,0,0.2c0,0.1,0,0.1,0,0.2
			c0,0,0,0.1,0.1,0.1c0,0.1,0.1,0.1,0.1,0.2c0,0,0.1,0.1,0.1,0.1c0,0,0.1,0,0.1,0c0.1,0,0.1,0,0.1,0c0.1,0,0.1-0.1,0.1-0.1l0.1,0.2
			c0,0,0,0.1,0.1,0.1c0,0,0,0-0.1,0.1s-0.1,0.1-0.2,0.2c0,0-0.1,0.1-0.1,0.1c-0.1,0-0.1,0-0.2,0c-0.2,0-0.3,0-0.5-0.1
			c-0.1-0.1-0.2-0.3-0.2-0.4c0,0,0-0.1,0-0.1c0,0,0-0.1,0-0.1c0-0.1,0-0.1-0.1-0.1c0,0,0,0,0,0.1c0,0-0.1,0-0.1,0.1
			s-0.1,0.1-0.1,0.1l0,0.1c0,0,0,0.1-0.1,0.1c-0.1,0.1-0.2,0.2-0.2,0.3s-0.2,0.2-0.2,0.3c-0.1,0.1-0.2,0.2-0.3,0.3
			c-0.1,0.1-0.2,0.1-0.2,0.1c-0.1,0-0.2,0-0.3-0.1c-0.1-0.1-0.1-0.2-0.1-0.3c0-0.1,0-0.2,0.1-0.2c0-0.1,0.1-0.1,0.1-0.2l0-0.1
			L447.7,310.6z M449.6,309.6C449.6,309.5,449.6,309.5,449.6,309.6c-0.1,0-0.1,0-0.2,0.1c-0.1,0.1-0.1,0.1-0.2,0.2
			c0,0.1-0.1,0.1-0.1,0.2c-0.1,0.1-0.2,0.2-0.3,0.3c0,0.1-0.1,0.1-0.1,0.2c-0.1,0.1-0.1,0.2-0.2,0.3c0,0.1-0.1,0.1-0.1,0.2
			c0,0,0,0,0,0c0.1,0,0.2-0.1,0.3-0.2c0.1-0.1,0.2-0.3,0.4-0.4c0.1-0.2,0.2-0.3,0.3-0.5C449.5,309.8,449.6,309.7,449.6,309.6
			L449.6,309.6z M450.8,310.6L450.8,310.6L450.8,310.6c0.1-0.1,0.1-0.2,0.1-0.2c0,0,0.1,0,0.1-0.1c0,0,0,0,0.1-0.1
			c0,0,0.1,0,0.2-0.1l0.1,0c0,0,0.1-0.1,0.1-0.1c0-0.1,0.1-0.1,0.1-0.2c0,0,0,0,0.1,0c0,0,0,0,0.1-0.1c0.1-0.1,0.1-0.1,0.2-0.2
			c0.1-0.1,0.1-0.1,0.2-0.2c0,0,0.1-0.1,0.1-0.1c0.1,0,0.2-0.1,0.3-0.2c0,0,0.1,0,0.1-0.1c0.1,0,0.1,0,0.2-0.1c0,0,0.1,0,0.1-0.1
			c0,0,0-0.1,0-0.1c0,0,0-0.1,0-0.1c0-0.1,0-0.1,0.1-0.2c0-0.1,0-0.1,0.1-0.2s0-0.1,0-0.1c0-0.1,0.1-0.3,0.2-0.4
			c0.1-0.1,0.1-0.3,0.3-0.5l0.2-0.3c0-0.1,0.1-0.1,0.1-0.1c0.1,0,0.1,0,0.2,0c0,0,0.1,0,0.1,0c0,0,0,0.1,0,0.1c0,0.1,0,0.2,0,0.3
			c0,0.1,0,0.2-0.1,0.3c0,0,0,0,0,0.1c0,0,0,0.1,0,0.1c0,0,0,0.1,0,0.1c0,0,0,0.1-0.1,0.1s0,0,0,0.1c0,0,0,0,0,0.1l0,0.1
			c0,0,0,0,0,0v0.1c0,0,0,0.1,0,0.1c0,0.1,0,0.1-0.1,0.2c0,0.1-0.1,0.1-0.1,0.2l0,0.1c0,0,0,0,0,0.1c0,0,0,0.1-0.1,0.1l0,0.1
			l-0.2,0.8c0,0.1,0,0.2,0,0.2c0,0.1,0,0.1,0,0.2c0,0,0,0.1,0.1,0.1c0,0.1,0.1,0.1,0.1,0.2c0,0,0.1,0.1,0.1,0.1c0,0,0.1,0,0.1,0
			c0,0,0.1,0,0.1,0c0.1,0,0.1-0.1,0.1-0.1l0.1,0.2c0,0,0,0.1,0.1,0.1c0,0,0,0-0.1,0.1c0,0-0.1,0.1-0.2,0.2c0,0-0.1,0.1-0.1,0.1
			c-0.1,0-0.1,0-0.2,0c-0.2,0-0.3,0-0.5-0.1c-0.1-0.1-0.2-0.3-0.2-0.4c0,0,0-0.1,0-0.1c0,0,0-0.1,0-0.1c0-0.1,0-0.1-0.1-0.1
			c0,0,0,0,0,0.1c0,0-0.1,0-0.1,0.1c0,0-0.1,0.1-0.1,0.1l0,0.1c0,0,0,0.1-0.1,0.1c-0.1,0.1-0.2,0.2-0.2,0.3s-0.2,0.2-0.2,0.3
			c-0.1,0.1-0.2,0.2-0.3,0.3c-0.1,0.1-0.2,0.1-0.2,0.1c-0.1,0-0.2,0-0.3-0.1c-0.1-0.1-0.1-0.2-0.1-0.3c0-0.1,0-0.2,0.1-0.2
			c0-0.1,0.1-0.1,0.1-0.2l0-0.1L450.8,310.6z M452.6,309.6C452.6,309.5,452.6,309.5,452.6,309.6c-0.1,0-0.1,0-0.2,0.1
			c-0.1,0.1-0.1,0.1-0.2,0.2c0,0.1-0.1,0.1-0.1,0.2c-0.1,0.1-0.2,0.2-0.3,0.3c0,0.1-0.1,0.1-0.1,0.2c-0.1,0.1-0.1,0.2-0.2,0.3
			c0,0.1,0,0.1-0.1,0.2c0,0,0,0,0,0c0.1,0,0.2-0.1,0.3-0.2c0.1-0.1,0.2-0.3,0.4-0.4c0.1-0.2,0.2-0.3,0.3-0.5
			C452.6,309.8,452.6,309.7,452.6,309.6L452.6,309.6z M453.8,310.6L453.8,310.6L453.8,310.6c0.1-0.2,0.3-0.3,0.4-0.4
			c0.1-0.1,0.2-0.2,0.3-0.3c0,0,0.1-0.1,0.1-0.1c0,0,0.1,0,0.1,0c0.1,0,0.2,0,0.2,0.1c0.1,0,0.1,0.1,0.1,0.2c0,0.1,0,0.2,0,0.2
			s0,0.1,0,0.2c0,0,0,0.1,0.1,0.2c0,0.1,0,0.1,0,0.2c0,0,0,0,0.1,0c0,0,0.1,0,0.1,0c0,0,0.1,0,0.1,0c0.1,0,0.1-0.1,0.1-0.1
			c0,0,0.1-0.1,0.1-0.1s0.1-0.1,0.1-0.1l0.1,0.3c0,0.1-0.1,0.1-0.2,0.1c-0.1,0-0.1,0.1-0.2,0.2c-0.1,0.1-0.2,0.1-0.3,0.2
			c0,0-0.1,0.1-0.2,0.1c-0.1,0-0.3,0-0.4-0.1c-0.1-0.1-0.2-0.3-0.2-0.4c0,0,0,0,0-0.1c0,0,0-0.1-0.1-0.1c0,0,0-0.1-0.1-0.1
			c0,0,0,0-0.1,0c-0.1,0-0.1,0-0.1,0.1c-0.1,0.1-0.1,0.1-0.2,0.2c0,0,0-0.1,0-0.1C453.9,310.8,453.9,310.7,453.8,310.6
			C453.9,310.7,453.9,310.7,453.8,310.6C453.8,310.6,453.8,310.6,453.8,310.6L453.8,310.6z M455.3,307.7c0,0,0.1,0,0.1,0
			c0,0,0,0.1,0,0.1c0,0.1,0,0.1,0,0.2c0,0.1-0.1,0.2-0.1,0.2s0,0.1,0,0.1c0,0.1-0.1,0.1-0.1,0.1c0,0-0.1,0.1-0.1,0.1
			c0,0-0.1,0.1-0.1,0.1c0,0,0,0-0.1,0c0,0-0.1,0-0.1,0c0,0-0.1,0-0.1,0s-0.1,0-0.1-0.1c0-0.1,0-0.1,0-0.2c0-0.1,0.1-0.2,0.1-0.3
			c0.1-0.1,0.2-0.2,0.2-0.2c0-0.1,0.1-0.1,0.1-0.2l0.1,0C455.2,307.7,455.3,307.7,455.3,307.7L455.3,307.7z M455.9,310.6
			C455.9,310.6,455.9,310.6,455.9,310.6c0.1-0.1,0.1-0.1,0.1-0.1c0,0,0.1-0.1,0.1-0.1l0.1-0.1c0.1-0.1,0.1-0.1,0.2-0.2
			c0.1-0.1,0.1-0.2,0.2-0.3c0,0,0.1-0.1,0.1-0.2s0.1-0.1,0.2-0.2c0.1-0.1,0.1-0.1,0.2-0.2c0.1,0,0.2-0.1,0.2-0.1
			c0.1,0,0.1,0,0.2,0.1c0,0.1,0.1,0.1,0.1,0.2c0,0.1,0,0.2-0.1,0.3c0,0.1-0.1,0.4-0.2,0.6c0,0.1,0,0.1-0.1,0.1c0,0,0,0,0,0.1v0.1
			c0,0,0,0,0,0c0,0,0,0,0,0s0,0,0,0c0,0,0.1-0.1,0.1-0.1c0,0,0.1-0.1,0.1-0.1c0,0,0-0.1,0.1-0.1c0,0,0.1-0.1,0.1-0.1c0,0,0,0,0-0.1
			c0,0,0,0,0.1-0.1c0,0,0.1-0.1,0.1-0.1c0,0,0.1-0.1,0.1-0.1s0.1-0.1,0.2-0.1c0,0,0.1,0,0.1,0c0.1,0,0.1,0,0.2,0.1
			c0.1,0,0.1,0.1,0.1,0.2c0.1,0.1,0.1,0.3,0.1,0.4c0,0.1,0,0.1,0.1,0.2c0,0,0.1,0.1,0.1,0.1c0,0,0.1,0,0.1,0c0,0,0,0,0.1,0l0.1,0.3
			c0,0-0.1,0.1-0.1,0.1c0,0-0.1,0.1-0.1,0.1c0,0-0.1,0.1-0.1,0.1c0,0-0.1,0-0.1,0c-0.1,0-0.1,0-0.2,0c0,0-0.1-0.1-0.1-0.1
			c0,0-0.1-0.1-0.1-0.1c0-0.1-0.1-0.1-0.1-0.2c0,0-0.1-0.1-0.1-0.1c0,0-0.1-0.1-0.1-0.2l0,0c0,0-0.1,0-0.1,0.1c0,0-0.1,0.1-0.1,0.1
			c-0.1,0.1-0.2,0.1-0.2,0.2c0,0-0.1,0.1-0.1,0.1c0,0.1-0.1,0.2-0.2,0.2c-0.1,0.1-0.2,0.2-0.3,0.3l-0.1,0.1c0,0-0.1,0.1-0.1,0.1
			c0,0-0.1,0-0.1,0.1c0,0-0.1,0-0.1,0c-0.1,0-0.1,0-0.1-0.1s0-0.1,0-0.2c0-0.1,0.1-0.2,0.1-0.4s0.1-0.3,0.1-0.5c0,0,0,0,0,0
			c0,0,0,0,0-0.1c0,0,0-0.1,0-0.1v-0.1c0,0,0,0,0,0c0,0,0,0-0.1,0c0,0-0.1,0-0.1,0c-0.1,0-0.1,0.1-0.1,0.2l-0.2,0.2l-0.1,0.1
			c0,0-0.1,0-0.1,0.1c0,0-0.1,0.1-0.1,0.1c0,0,0,0,0,0c0,0,0,0,0,0.1c0,0,0-0.1-0.1-0.1C456,310.7,456,310.7,455.9,310.6
			L455.9,310.6z M459.4,310.6C459.4,310.6,459.4,310.6,459.4,310.6c0.1-0.1,0.1-0.2,0.1-0.2c0,0,0.1-0.1,0.1-0.1
			c0-0.1,0.1-0.1,0.1-0.2c0,0,0-0.1,0.1-0.1c0-0.1,0.1-0.1,0.1-0.2c0-0.1,0.1-0.2,0.1-0.2c0.1-0.1,0.1-0.2,0.2-0.3l0.4-0.5
			c0.1-0.1,0.1-0.2,0.2-0.3c0.1,0,0.2-0.1,0.3-0.1c0.1,0,0.1,0,0.2,0.1c0,0.1,0.1,0.2,0,0.3c0,0.1,0,0.1-0.1,0.2
			c-0.1,0.1-0.2,0.2-0.3,0.3c-0.1,0.1-0.1,0.2-0.2,0.3c-0.1,0.1-0.2,0.2-0.2,0.3c0,0-0.1,0.1-0.1,0.1c0,0-0.1,0.1-0.1,0.1
			c0,0.1,0,0.1,0,0.2c0,0.1,0,0.2,0,0.2c0,0.1,0,0.1,0,0.2c0,0,0,0.1,0.1,0.1c0,0.1,0.1,0.2,0.2,0.2c0,0,0,0,0.1,0.1l0.1,0.1
			c0,0,0.1-0.1,0.2-0.2c0.1-0.2,0.3-0.3,0.4-0.5l0.1,0.3c0,0-0.1,0.1-0.1,0.1c-0.1,0.1-0.1,0.2-0.2,0.2c-0.1,0.1-0.2,0.2-0.2,0.3
			c0,0,0,0.1,0,0.1c0,0,0.1,0.1,0.1,0.1c0.1,0.1,0.1,0.2,0.2,0.3c0,0.1,0.1,0.3,0.1,0.4c0,0,0,0,0,0.1v0.1c-0.1,0.3-0.3,0.6-0.5,0.8
			c-0.2,0.2-0.5,0.4-0.9,0.4c-0.1,0-0.2,0-0.3,0c-0.1,0-0.1-0.1-0.2-0.1c0-0.1,0-0.1,0-0.2v-0.4c0,0,0-0.1,0-0.1c0,0,0-0.1,0.1-0.2
			c0,0,0-0.1,0.1-0.1c0-0.1,0.1-0.1,0.1-0.2c0-0.1,0.1-0.1,0.1-0.1c0-0.1,0.1-0.1,0.1-0.1c0.1-0.1,0.1-0.2,0.2-0.2
			c0,0,0.1-0.1,0.1-0.1c0,0,0-0.1,0-0.1c-0.1-0.1-0.2-0.2-0.3-0.3c-0.1-0.1-0.2-0.2-0.2-0.3c-0.1-0.1-0.1-0.2-0.1-0.3
			c0,0,0-0.1,0-0.1l-0.2,0.2c0,0,0-0.1,0-0.1C459.5,310.7,459.4,310.7,459.4,310.6L459.4,310.6z M460.6,312.1c0,0,0,0-0.1,0.1
			c0,0.1-0.1,0.2-0.2,0.3c0,0.1-0.1,0.2-0.1,0.2c-0.1,0.1-0.1,0.2-0.2,0.2c0,0.1-0.1,0.1-0.1,0.2c0,0.1-0.1,0.1-0.1,0.2
			c0,0,0,0.1,0,0.1c0,0,0.1,0,0.1,0c0.2,0,0.4-0.1,0.6-0.3c0.2-0.1,0.3-0.4,0.3-0.6c0,0,0-0.1,0-0.1c0-0.1,0-0.1-0.1-0.2
			C460.7,312.3,460.7,312.2,460.6,312.1C460.7,312.2,460.6,312.1,460.6,312.1L460.6,312.1z M463.3,310.6c0,0,0-0.1,0.1-0.1
			c0,0,0.1-0.1,0.2-0.2c0.1-0.1,0.1-0.1,0.2-0.2c0,0,0.1-0.1,0.1-0.2c0-0.1,0.1-0.1,0.1-0.2c0.1-0.1,0.1-0.2,0.1-0.3
			c0,0,0.1,0,0.2-0.1c0.1,0,0.1-0.1,0.2-0.1c0,0,0,0,0.1,0.1c0,0.1,0,0.1,0,0.2v0.3c0,0.1,0,0.1,0,0.2c0,0,0,0,0,0s0,0,0,0.1
			s0,0,0,0.1c0,0.2,0,0.4,0,0.6c0,0.1,0.1,0.2,0.1,0.2c0,0,0.1-0.1,0.2-0.2c0.1-0.2,0.2-0.4,0.3-0.6c0.1-0.2,0.2-0.4,0.3-0.6
			c0.1-0.1,0.1-0.2,0.1-0.3c0-0.1,0.1-0.2,0.1-0.3c0-0.1,0.1-0.1,0.2-0.1c0,0,0,0,0,0s0,0,0,0c0,0.1,0,0.2,0,0.3
			c0,0.1-0.1,0.2-0.1,0.3c0,0.1,0,0.2,0,0.2c0,0.1-0.1,0.2-0.1,0.3c0,0.1,0,0.1-0.1,0.2c0,0.1-0.1,0.2-0.2,0.3
			c-0.1,0.1-0.1,0.2-0.2,0.3c0,0.1,0,0.2-0.1,0.2c-0.1,0.1-0.2,0.2-0.3,0.3c0,0,0,0.1-0.1,0.1c0,0-0.1,0.1-0.1,0.1
			c0,0-0.1,0.1-0.1,0.1c0,0-0.1,0-0.1,0c-0.1,0-0.2-0.1-0.3-0.1c-0.1-0.1-0.1-0.3-0.1-0.5c0,0,0-0.1,0-0.1c0,0,0-0.1,0-0.1
			s0-0.1,0-0.2v-0.2c0-0.1,0-0.1,0-0.1l0-0.1l0,0c0,0-0.1,0-0.1,0.1c-0.1,0.1-0.2,0.2-0.3,0.3c0-0.1,0-0.1-0.1-0.2
			C463.3,310.7,463.3,310.7,463.3,310.6L463.3,310.6z M465.8,310.4l0.3-0.2c0,0,0,0,0-0.1c0,0,0-0.1,0.1-0.1c0,0,0-0.1,0.1-0.1
			c0,0,0.1,0,0.1-0.1c0,0,0.1-0.1,0.1-0.1c0,0,0.1-0.1,0.1-0.1c0,0,0.1,0,0.1-0.1c0.1,0,0.1-0.1,0.1-0.1c0.2-0.2,0.4-0.3,0.6-0.5
			c0.1-0.1,0.3-0.1,0.4-0.2c0,0,0.1,0,0.1,0c0,0,0,0.1,0,0.1c0,0.1,0,0.1,0,0.1c0,0,0,0.1-0.1,0.1c-0.1,0-0.1,0.1-0.2,0.1
			c0,0.1-0.1,0.1-0.2,0.1c-0.1,0.1-0.1,0.1-0.2,0.2c0,0,0,0.1-0.1,0.1c0,0,0,0.1-0.1,0.1c0,0-0.1,0.1-0.1,0.1c0,0.1-0.1,0.2-0.1,0.2
			c-0.1,0.1-0.2,0.2-0.3,0.3c0,0,0,0.1-0.1,0.1c-0.1,0.1-0.1,0.2-0.2,0.2l0,0c0.1,0,0.1,0,0.2-0.1c0.1,0,0.1-0.1,0.2-0.2
			c0.1-0.1,0.1-0.1,0.2-0.2c0,0,0.1-0.1,0.1-0.1s0,0,0.1,0s0,0,0.1,0c0.1-0.1,0.2-0.2,0.3-0.3c0.1-0.1,0.2-0.1,0.3-0.1
			c0,0,0.1,0,0.1,0.1c0,0.1,0,0.1,0,0.2v0.4c0,0.1,0,0.1,0.1,0.2c0,0.1,0.1,0.1,0.2,0.1c0,0,0,0,0.1,0c0,0,0,0,0.1-0.1
			c0,0,0,0,0-0.1c0,0,0,0,0.1-0.1c0,0,0,0,0,0c0,0,0,0,0.1,0c0,0.1,0.1,0.1,0.1,0.2c0,0,0,0.1,0,0.1l-0.2,0.2
			c-0.1,0.1-0.1,0.1-0.2,0.1c-0.1,0.1-0.1,0.1-0.2,0.1c-0.1,0-0.1,0-0.2,0c-0.1,0-0.3,0-0.4-0.1c-0.1-0.1-0.1-0.3-0.1-0.4
			c0,0,0,0,0-0.1c0,0,0-0.1,0-0.1c0,0,0,0,0,0c0,0,0,0,0,0.1c0,0-0.1,0.1-0.1,0.1c-0.1,0-0.1,0.1-0.2,0.1c-0.1,0.1-0.2,0.1-0.2,0.2
			c0,0-0.1,0.1-0.1,0.1c0,0-0.1,0.1-0.2,0.1c-0.1,0.1-0.1,0.1-0.2,0.1c0,0-0.1,0-0.1,0.1c0,0-0.1,0-0.1,0c-0.1,0-0.2,0-0.3-0.1
			c-0.1-0.1-0.1-0.2-0.1-0.3c0-0.1,0-0.1,0-0.2c0-0.1,0.1-0.1,0.1-0.2v-0.1c0,0,0,0,0,0c0,0,0-0.1,0-0.1s0-0.1-0.1-0.1
			c0,0,0,0,0-0.1C465.7,310.5,465.7,310.5,465.8,310.4L465.8,310.4z M468.5,310.6C468.5,310.6,468.5,310.5,468.5,310.6
			c0.1-0.1,0.1-0.2,0.1-0.2l0.2-0.2c0,0,0,0,0,0V310c0-0.1,0-0.2,0-0.3c0-0.1,0-0.2,0.1-0.2l0-0.1c0-0.2,0.1-0.4,0.1-0.5
			c0.1-0.2,0.1-0.4,0.2-0.6c0,0,0.1-0.1,0.1-0.1c0-0.1,0.1-0.1,0.1-0.2c0-0.1,0.1-0.3,0.2-0.4c0.1-0.1,0.1-0.3,0.2-0.4
			c0.1-0.2,0.2-0.3,0.3-0.4c0.1-0.1,0.1-0.1,0.2-0.1c0.1,0,0.2,0,0.3,0.1c0.1,0.1,0.1,0.2,0.1,0.3c0,0,0,0.1,0,0.2s0,0.1,0,0.2
			c0,0.1,0,0.1,0,0.2c0,0.1,0,0.1,0,0.2c0,0,0,0,0,0.1v0.1c0,0,0,0.1,0,0.1c0,0.1,0,0.1-0.1,0.2c0,0.1,0,0.1-0.1,0.2
			c0,0.1-0.1,0.2-0.1,0.3c0,0,0,0.1-0.1,0.1c0,0,0,0.1-0.1,0.1c0,0,0,0.1,0,0.1c0,0.1,0,0.1-0.1,0.1c0,0,0,0.1,0,0.1
			c0,0-0.1,0.1-0.1,0.1c0,0,0,0.1,0,0.1c0,0,0,0.1-0.1,0.1c0,0-0.1,0.1-0.1,0.1c-0.1,0.1-0.1,0.1-0.1,0.2c-0.1,0.1-0.2,0.3-0.2,0.4
			c0,0.2,0,0.4,0.1,0.5c0.1,0.1,0.3,0.2,0.4,0.2c0,0,0,0,0.1,0s0.1,0,0.2-0.1c0,0,0.1-0.1,0.1-0.1s0.1-0.1,0.1-0.1l0.1,0.3
			c-0.1,0.1-0.1,0.1-0.2,0.2c-0.1,0.1-0.1,0.1-0.2,0.2c-0.1,0.1-0.1,0.1-0.2,0.1c-0.1,0-0.2,0.1-0.2,0.1c-0.1,0-0.1,0-0.2,0
			c-0.1,0-0.1,0-0.2,0c-0.1,0-0.3-0.1-0.3-0.2c-0.1-0.1-0.2-0.3-0.2-0.5c0,0,0,0,0-0.1c0,0,0,0,0-0.1c0,0-0.1,0.1-0.1,0.1l-0.1,0.1
			L468.5,310.6z M470.2,307.7L470.2,307.7c-0.1,0.1-0.2,0.2-0.3,0.4c-0.1,0.1-0.1,0.2-0.1,0.3c0,0,0,0.1,0,0.1c0,0.1,0,0.1-0.1,0.2
			c0,0.1-0.1,0.1-0.1,0.2c0,0.1-0.1,0.3-0.1,0.3c0,0.1,0,0.1,0,0.2l0,0c0,0,0,0,0.1-0.1s0.1-0.1,0.1-0.2c0-0.1,0-0.1,0.1-0.1
			c0-0.1,0.1-0.1,0.1-0.2c0.1-0.3,0.3-0.5,0.3-0.8c0,0,0-0.1,0-0.1C470.2,307.8,470.2,307.8,470.2,307.7L470.2,307.7z M470.5,310.6
			C470.5,310.6,470.5,310.6,470.5,310.6C470.5,310.6,470.5,310.6,470.5,310.6c0.1-0.1,0.1-0.2,0.2-0.2c0.1-0.1,0.1-0.1,0.2-0.2
			c0.1-0.1,0.1-0.1,0.2-0.2l0.2-0.2c0.1-0.1,0.1-0.1,0.2-0.2c0-0.1,0.1-0.2,0.2-0.2c0.1,0,0.1-0.1,0.2-0.1c0.1,0,0.1,0,0.1,0
			c0,0,0.1,0,0.1,0c0,0,0,0.1,0,0.1c0,0,0,0,0,0.1c0,0,0,0.1,0,0.1c0,0,0,0.1,0,0.1c0,0.1,0,0.2-0.1,0.3c0,0.1-0.1,0.2-0.1,0.3
			c0,0.1,0,0.2-0.1,0.3c0,0.1,0,0.2,0,0.2c0,0.1,0,0.2,0,0.3c0,0.1,0,0.1,0.1,0.1c0,0,0.1,0,0.1,0c0,0,0.1-0.1,0.1-0.1
			c0.1-0.1,0.1-0.1,0.1-0.2c0.1-0.1,0.1-0.2,0.2-0.2c0-0.1,0.1-0.1,0.1-0.2c0,0,0,0,0.1-0.1c0,0,0,0,0.1-0.1c0-0.1,0.1-0.2,0.1-0.3
			c0.1-0.1,0.1-0.1,0.2-0.1c0.1,0,0.1,0,0.1,0c0,0,0.1,0,0.1,0.1c0,0,0,0.1,0,0.1c0,0,0,0.1,0,0.2c0,0,0,0.1,0,0.1c0,0,0,0.1,0,0.1
			c0,0.1,0,0.1,0,0.2c0,0,0.1,0.1,0.1,0.1h0.1c0,0,0,0,0.1,0l0.1,0.3c-0.1,0.1-0.2,0.1-0.4,0.2c-0.1,0-0.1,0.1-0.2,0.1
			c-0.1,0-0.2,0-0.3-0.1c-0.1-0.1-0.1-0.2-0.2-0.3c0,0,0-0.1,0-0.1c0,0,0-0.1-0.1-0.1c0,0,0,0.1-0.1,0.1c0,0-0.1,0.1-0.1,0.1
			c-0.1,0.1-0.1,0.1-0.2,0.2s-0.1,0.1-0.2,0.2c-0.1,0.1-0.2,0.1-0.3,0.2c-0.1,0-0.2,0.1-0.2,0.1c-0.1,0-0.2,0-0.3-0.1
			c-0.1-0.1-0.1-0.2-0.1-0.3c0-0.1,0-0.2,0-0.3c0-0.1,0-0.1,0-0.1c0-0.1,0-0.1,0-0.2c0,0,0,0,0,0h0l-0.2,0.2c0,0,0,0,0,0.1
			c0,0,0,0.1-0.1,0.1c0,0,0-0.1,0-0.1C470.6,310.7,470.5,310.7,470.5,310.6L470.5,310.6z M473.5,310.6c0-0.1,0.1-0.1,0.1-0.2
			c0,0,0.1-0.1,0.2-0.1c0,0,0-0.1,0-0.1c0,0,0-0.1,0-0.1c0,0,0-0.1,0-0.1s0-0.1,0-0.1c0-0.1,0.1-0.1,0.1-0.2c0-0.1,0.1-0.2,0.2-0.3
			c0.1-0.1,0.1-0.1,0.2-0.2c0.1-0.1,0.1-0.1,0.2-0.2c0,0,0.1,0,0.1-0.1c0,0,0.1,0,0.1-0.1c0,0,0.1,0,0.1,0c0,0,0.1,0,0.1,0
			c0.1,0,0.1,0,0.1,0c0,0,0.1,0,0.1,0.1c0,0,0.1,0.1,0.1,0.1c0,0,0,0.1,0,0.1s0,0.1,0,0.2v0c0,0,0,0.1,0,0.1l0,0.1
			c-0.1,0.1-0.1,0.3-0.2,0.4c-0.1,0.2-0.3,0.4-0.5,0.5c0,0,0,0,0,0.1c0,0,0,0,0,0.1c0,0,0,0.1,0,0.1c0,0,0,0.1,0.1,0.1
			c0,0,0.1,0,0.1,0c0,0,0.1,0,0.1,0c0.1,0,0.2,0,0.3-0.1c0.1,0,0.1,0,0.2-0.1c0,0,0,0,0.1,0c0,0,0.1,0,0.1,0c0,0.1,0.1,0.1,0.1,0.2
			c0,0,0,0.1,0.1,0.1c-0.1,0.1-0.2,0.2-0.4,0.3c-0.1,0.1-0.2,0.1-0.3,0.1l-0.1,0c-0.1,0-0.1,0-0.2,0c-0.1,0-0.2,0-0.2,0
			c-0.1,0-0.1-0.1-0.2-0.1c0,0-0.1-0.1-0.1-0.1c0-0.1,0-0.1-0.1-0.2c0,0,0-0.1-0.1-0.1c0,0,0,0-0.1,0c0,0,0,0-0.1,0c0,0,0,0-0.1,0.1
			c0,0,0-0.1-0.1-0.1S473.6,310.7,473.5,310.6L473.5,310.6z M474.7,309.4c0,0-0.1,0.1-0.2,0.2c-0.1,0.1-0.1,0.2-0.1,0.3v0h0
			c0,0,0,0,0.1,0c0,0,0-0.1,0.1-0.1l0.1-0.1c0,0,0-0.1,0.1-0.1c0,0,0-0.1,0.1-0.1C474.7,309.6,474.8,309.5,474.7,309.4
			C474.8,309.5,474.7,309.5,474.7,309.4C474.7,309.4,474.7,309.4,474.7,309.4L474.7,309.4z M477.2,310.6L477.2,310.6
			c0-0.1,0-0.1,0.1-0.1c0,0,0-0.1,0.1-0.1c0.2-0.2,0.4-0.4,0.5-0.6c0.2-0.2,0.3-0.5,0.5-0.8c0,0,0.1-0.1,0.1-0.1c0,0,0-0.1,0.1-0.2
			c0,0,0,0,0,0c0,0,0,0,0,0c0,0-0.1,0-0.1,0c0,0,0,0-0.1,0h-0.6c0,0,0,0-0.1,0c0,0,0,0-0.1,0c0,0-0.1,0-0.1,0c0,0,0,0,0-0.1
			c0-0.1,0-0.2,0.1-0.3c0-0.1,0.1-0.1,0.1-0.1c0.1,0,0.1,0,0.2,0c0.1,0,0.1,0,0.1,0c0,0,0.1,0,0.1,0c0.1,0,0.1,0,0.2,0
			c0,0,0.1,0,0.1,0c0,0,0.1,0,0.1,0c0,0,0.1,0,0.1,0l0.1,0c0.1,0,0.2-0.1,0.3-0.4s0.2-0.3,0.3-0.3c0,0,0.1,0,0.1,0
			c0,0,0.1,0.1,0.1,0.2c0,0.1,0,0.2-0.1,0.2c0,0.1,0,0.1,0,0.2c0,0,0,0,0,0c0,0,0,0,0,0s0,0,0,0v0.1c0,0.1,0,0.2,0,0.3
			c0,0.1,0,0.1-0.1,0.1l-0.3,0c0,0,0,0.1,0,0.1c0,0,0,0.1,0,0.1c-0.1,0.2-0.1,0.3-0.1,0.5c0,0.2-0.1,0.4-0.2,0.7
			c0,0.2-0.1,0.4-0.1,0.5c0,0.1,0,0.2,0,0.3c0,0,0,0.1,0,0.1c0,0,0,0,0,0c0.1,0,0.1-0.1,0.2-0.1c0.1-0.1,0.2-0.2,0.4-0.3l0.1,0.3
			c0,0-0.1,0.1-0.1,0.1c0,0-0.1,0.1-0.2,0.1c0,0-0.1,0.1-0.1,0.1l-0.1,0.1c0,0-0.1,0.1-0.1,0.1l-0.1,0.1c0,0.1-0.1,0.1-0.2,0.1
			c-0.1,0-0.1,0-0.2,0c-0.1,0-0.2,0-0.2-0.1c-0.1-0.1-0.1-0.2-0.1-0.3c0-0.1,0-0.3,0-0.4s0-0.2,0-0.3c0,0,0,0,0,0c0,0,0-0.1,0-0.1
			c0,0,0-0.1,0-0.1c0-0.1,0-0.2,0-0.3c0-0.1,0.1-0.1,0.1-0.2c0,0,0,0,0,0l0,0c0,0.1-0.1,0.1-0.1,0.2c-0.1,0.1-0.1,0.1-0.2,0.2
			c-0.1,0.1-0.2,0.2-0.4,0.4c0,0,0,0,0,0.1c0,0,0,0.1-0.1,0.1c0,0,0-0.1,0-0.1C477.3,310.8,477.3,310.7,477.2,310.6
			C477.3,310.7,477.3,310.7,477.2,310.6C477.2,310.6,477.2,310.6,477.2,310.6L477.2,310.6z M479.3,310.6
			C479.3,310.6,479.3,310.6,479.3,310.6c0.1-0.1,0.1-0.1,0.1-0.2l0.3-0.2c0.1-0.1,0.1-0.1,0.2-0.1c0.1-0.1,0.1-0.1,0.3-0.2
			c0,0,0-0.1,0.1-0.1c0,0,0.1-0.1,0.1-0.1c0,0,0.1-0.1,0.1-0.1c0,0,0.1,0,0.1-0.1s0.1-0.1,0.1-0.1c0,0,0.1-0.1,0.1-0.1
			c0,0,0.1-0.1,0.1-0.1c0,0,0.1,0,0.1,0c0.1,0,0.1,0,0.1,0c0,0,0,0,0,0.1c0,0.1-0.1,0.1-0.1,0.2l0,0c0.1,0,0.2-0.1,0.3-0.1
			c0,0,0.1,0,0.1,0c0.1,0,0.3,0,0.4,0.1c0.1,0.1,0.1,0.3,0.1,0.5c0,0,0,0.1,0,0.1c0,0.1,0,0.1,0,0.2c0,0.1-0.1,0.1-0.1,0.2
			c0,0,0,0.1-0.1,0.1c0,0,0,0,0,0.1s0,0,0.1,0c0,0,0,0,0.1,0c0,0,0,0,0.1,0c0,0,0,0.1,0.1,0.2c0,0.1,0,0.1,0.1,0.2
			c0,0-0.1,0.1-0.1,0.1c0,0-0.1,0.1-0.1,0.1c0,0-0.1,0.1-0.2,0.1c0,0-0.1,0-0.1,0c0,0-0.1,0-0.1,0c0,0-0.1-0.1-0.1-0.1
			c-0.1,0.1-0.1,0.2-0.2,0.2c-0.1,0.1-0.2,0.1-0.3,0.2c-0.1,0-0.1,0.1-0.2,0.1c0,0-0.1,0-0.1,0c0,0,0,0-0.1,0c0,0-0.1,0-0.1,0
			c-0.1,0-0.3-0.1-0.4-0.2c-0.1-0.1-0.2-0.2-0.2-0.4c0-0.1,0-0.2,0-0.2c0-0.1,0-0.1,0-0.2c0,0,0,0,0,0c0,0,0,0,0,0c0,0,0,0-0.1,0
			c0,0-0.1,0.1-0.2,0.2c0,0,0,0,0,0l-0.1,0.1c0-0.1,0-0.1-0.1-0.2C479.3,310.7,479.3,310.7,479.3,310.6L479.3,310.6z M481,309.9
			C481,310,481,310,481,309.9c-0.1,0.1-0.1,0.1-0.1,0.1c0,0.1-0.1,0.1-0.1,0.2c0,0-0.1,0-0.1,0.1c0,0-0.1,0-0.1,0c0,0,0,0-0.1,0.1
			c0,0.1-0.1,0.1-0.1,0.2c0,0.1,0,0.1-0.1,0.2c0,0,0,0.1,0,0.1c0,0.1,0,0.1,0,0.2c0,0,0.1,0,0.1,0c0.1,0,0.2,0,0.3-0.1
			c0.1-0.1,0.2-0.2,0.3-0.3c0,0,0.1-0.1,0.1-0.1c0,0,0,0,0-0.1s0-0.1,0-0.1l0.1-0.2c0-0.1,0-0.1-0.1-0.2c0,0,0-0.1-0.1-0.1
			c0,0-0.1,0-0.1,0C481.2,310,481.1,309.9,481,309.9L481,309.9z M485.4,306.6C485.4,306.6,485.4,306.6,485.4,306.6
			c0,0.1,0,0.1,0,0.2c0,0.1-0.1,0.2-0.1,0.3c0,0.1-0.1,0.2-0.1,0.3c0,0.1,0,0.1,0,0.2v0.1c0,0,0,0.1,0,0.1c0,0.1,0,0.1,0,0.2
			c0,0.1,0,0.1,0,0.2c0,0.1,0,0.2-0.1,0.3c0,0.1-0.1,0.1-0.2,0.1c-0.1,0-0.1,0-0.2,0c-0.1,0-0.1-0.1-0.1-0.1c0,0,0-0.1,0-0.1
			c0-0.1,0-0.1-0.1-0.3c0,0,0-0.1,0-0.1c0,0,0-0.1,0.1-0.1c0,0,0-0.1,0.1-0.1c0,0,0,0,0-0.1c0.1-0.2,0.2-0.5,0.3-0.7
			c0.1-0.1,0.2-0.2,0.3-0.2L485.4,306.6C485.4,306.6,485.4,306.6,485.4,306.6L485.4,306.6z M488.5,310.6l0.1,0.3c0,0-0.1,0-0.1,0.1
			l-0.1,0.1c0,0-0.1,0-0.2,0.1s-0.2,0.1-0.3,0.1c-0.1,0-0.1,0.1-0.2,0.1c0,0-0.1,0-0.1,0c-0.1,0-0.1,0-0.2,0c-0.1,0-0.2,0.1-0.3,0.1
			c-0.1,0-0.1,0.1-0.2,0.1c-0.1,0-0.2,0.1-0.3,0.1l-0.2,0l-0.1,0.1h-0.3c-0.1,0-0.1,0-0.2,0c0,0,0,0,0-0.1l0-0.1l0,0
			c-0.1,0-0.1,0-0.2,0c0,0-0.1-0.1,0-0.1v-0.2c0-0.1,0-0.2,0-0.3c0,0,0,0,0-0.1c0,0,0,0,0-0.1c0,0,0,0,0-0.1v0c0-0.1,0-0.2,0-0.3
			s0-0.3,0.1-0.5c0-0.1,0-0.2,0.1-0.4c0-0.1,0-0.2,0-0.3c0.1-0.4,0.2-0.8,0.3-1.2c0-0.1,0.1-0.1,0.1-0.2c0-0.1,0.1-0.1,0.1-0.2
			c0,0,0,0,0,0s0,0,0.1-0.1c0,0,0-0.1,0.1-0.1c0,0,0.1,0,0.1,0c0,0,0.1,0,0.1-0.1l0.1-0.1c0,0,0.1-0.1,0.1-0.1
			c0.1-0.1,0.2-0.1,0.3-0.2c0.1-0.1,0.2-0.1,0.3-0.1c0,0,0.1,0,0.2,0c0.1,0,0.1,0,0.1,0c0.1,0,0.1,0,0.1,0s0,0,0.1,0h0.1
			c0,0,0.1,0,0.1,0h0.2c0.1,0,0.2,0.1,0.2,0.1c0,0.1,0.1,0.1,0.1,0.2c0,0.1,0,0.3-0.1,0.4c0,0.1-0.1,0.1-0.1,0.1
			c-0.1,0-0.1,0-0.2-0.1c-0.2-0.1-0.4-0.1-0.6-0.1c-0.1,0-0.2,0-0.4,0.1l0,0c0,0,0,0,0,0l-0.1,0c-0.1,0-0.1,0.1-0.1,0.1
			c-0.1,0.1-0.1,0.2-0.1,0.3c0,0,0,0.1,0,0.1c0,0,0,0.1,0,0.1c0,0.2-0.1,0.3-0.1,0.5c0,0.2-0.1,0.3-0.1,0.4c0,0.1,0,0.1,0,0.2
			c0,0,0,0,0,0.1c0,0,0,0,0,0.1c0,0,0,0.1,0,0.1c0,0,0,0,0.1,0s0.1,0,0.2-0.1c0.1-0.1,0.1-0.1,0.2-0.1c0.1,0,0.1,0,0.2,0
			c0.1,0,0.1,0,0.1-0.1c0,0,0.1,0,0.2,0s0.2,0,0.4,0l0.1,0l0.2,0l0.1,0c0,0,0,0.1,0.1,0.1c0,0,0,0.1,0.1,0.1c0,0.1,0,0.2,0,0.3
			c0,0.1-0.1,0.1-0.1,0.1l-0.2-0.1l-0.5,0l-0.5,0c-0.2,0-0.3,0.1-0.5,0.2c-0.1,0.1-0.2,0.2-0.2,0.4c0,0,0,0.1,0,0.1
			c0,0.1,0,0.1,0,0.3l0,0.1c0,0.1,0,0.2,0,0.3c0,0.1,0,0.2,0,0.2v0.1h0c0.1,0,0.2,0,0.3,0c0,0,0.1,0,0.1,0c0.1,0,0.1,0,0.2,0l0.2,0
			c0.1,0,0.1,0,0.2-0.1c0.1,0,0.1,0,0.2,0c0.1,0,0.3,0,0.4-0.1c0.1,0,0.3-0.1,0.4-0.1c0,0,0.1,0,0.1,0
			C488.4,310.6,488.4,310.6,488.5,310.6L488.5,310.6z M488.5,310.6L488.5,310.6L488.5,310.6c0.1-0.1,0.1-0.2,0.2-0.2
			c0,0,0.1,0,0.1-0.1s0,0,0.1-0.1c0,0,0.1,0,0.2-0.1l0.1,0c0,0,0.1-0.1,0.1-0.1c0-0.1,0.1-0.1,0.1-0.2c0,0,0,0,0.1,0
			c0,0,0,0,0.1-0.1l0.2-0.2c0-0.1,0.1-0.1,0.1-0.2c0.1,0,0.1-0.1,0.1-0.1c0.1,0,0.1-0.1,0.3-0.2c0,0,0.1,0,0.1-0.1
			c0.1,0,0.1,0,0.2-0.1c0,0,0.1,0,0.1-0.1c0,0,0-0.1,0-0.1c0,0,0-0.1,0.1-0.1c0,0,0-0.1,0-0.2s0-0.1,0.1-0.2s0-0.1,0-0.1
			c0-0.1,0.1-0.3,0.2-0.4c0.1-0.1,0.1-0.3,0.3-0.5l0.2-0.3c0-0.1,0.1-0.1,0.1-0.1c0.1,0,0.1,0,0.2,0c0,0,0.1,0,0.1,0
			c0,0,0,0.1,0,0.1c0,0.1,0,0.2,0,0.3c0,0.1,0,0.2-0.1,0.3c0,0,0,0,0,0.1c0,0,0,0.1,0,0.1c0,0,0,0.1,0,0.1c0,0,0,0.1-0.1,0.1
			c0,0,0,0,0,0.1c0,0,0,0.1,0,0.1l0,0.1c0,0,0,0,0,0v0.1c0,0,0,0.1,0,0.1c0,0,0,0.1-0.1,0.2c0,0.1-0.1,0.1-0.1,0.2l0,0.1
			c0,0,0,0,0,0.1l0,0.1v0.1l-0.2,0.8v0.2c0,0.1,0,0.1,0,0.2c0,0,0,0.1,0.1,0.1s0.1,0.1,0.1,0.2c0,0,0.1,0.1,0.1,0.1c0,0,0.1,0,0.1,0
			c0.1,0,0.1,0,0.2,0c0.1,0,0.1-0.1,0.1-0.1l0.1,0.2c0,0,0,0.1,0.1,0.1c0,0,0,0-0.1,0.1s-0.1,0.1-0.2,0.2c0,0-0.1,0.1-0.1,0.1
			c-0.1,0-0.1,0-0.2,0c-0.2,0-0.3,0-0.5-0.1c-0.1-0.1-0.2-0.3-0.2-0.4c0,0,0-0.1,0-0.1s0-0.1,0-0.1c0-0.1,0-0.1-0.1-0.1
			c0,0,0,0,0,0.1c0,0-0.1,0-0.1,0.1c0,0-0.1,0.1-0.1,0.1c0,0,0,0.1,0,0.1c0,0,0,0.1-0.1,0.1c-0.1,0.1-0.1,0.2-0.2,0.3
			c-0.1,0.1-0.2,0.2-0.2,0.3c-0.1,0.1-0.2,0.2-0.3,0.3c-0.1,0.1-0.2,0.1-0.2,0.1c-0.1,0-0.2,0-0.3-0.1c-0.1-0.1-0.1-0.2-0.1-0.3
			c0-0.1,0-0.2,0.1-0.2c0-0.1,0-0.1,0.1-0.2l0-0.1L488.5,310.6z M490.3,309.6C490.3,309.5,490.3,309.5,490.3,309.6
			c-0.1,0-0.1,0-0.2,0.1c-0.1,0.1-0.1,0.1-0.2,0.2c0,0.1-0.1,0.1-0.1,0.2c-0.1,0.1-0.2,0.2-0.3,0.3c0,0.1-0.1,0.1-0.1,0.2
			c-0.1,0.1-0.1,0.2-0.2,0.3c0,0.1-0.1,0.1-0.1,0.2c0,0,0,0,0,0c0.1,0,0.2-0.1,0.3-0.2c0.1-0.1,0.2-0.3,0.4-0.4
			c0.1-0.2,0.2-0.3,0.3-0.5C490.2,309.8,490.3,309.7,490.3,309.6L490.3,309.6z M491.5,310.6L491.5,310.6L491.5,310.6l0.2-0.2
			c0-0.1,0.1-0.1,0.2-0.2c0-0.1,0.1-0.1,0.2-0.2l0.2-0.2c0.1-0.1,0.1-0.1,0.2-0.2c0.1-0.1,0.1-0.2,0.2-0.2c0.1,0,0.1-0.1,0.2-0.1
			c0,0,0.1,0,0.1,0c0,0,0.1,0,0.1,0c0,0,0,0.1,0,0.1c0,0,0,0,0,0.1s0,0.1,0,0.1c0,0.1,0,0.1-0.1,0.1c0,0.1,0,0.2-0.1,0.3
			c0,0.1-0.1,0.2-0.1,0.3c0,0.1,0,0.2-0.1,0.3c0,0.1,0,0.2,0,0.2c0,0.1,0,0.2,0,0.3c0,0.1,0,0.1,0.1,0.1c0,0,0.1,0,0.1,0
			c0,0,0.1-0.1,0.1-0.1c0,0,0.1-0.1,0.1-0.2c0.1-0.1,0.1-0.2,0.2-0.2c0-0.1,0.1-0.1,0.1-0.2c0,0,0,0,0.1-0.1c0,0,0,0,0.1-0.1
			c0-0.1,0.1-0.2,0.2-0.3c0-0.1,0.1-0.1,0.2-0.1c0.1,0,0.1,0,0.1,0c0,0,0.1,0,0.1,0.1c0,0,0,0.1,0,0.1v0.2c0,0,0,0.1,0,0.1
			c0,0,0,0.1,0,0.1c0,0.1,0,0.1,0,0.2c0,0,0.1,0.1,0.1,0.1h0.1c0,0,0,0,0.1,0l0.1,0.3c-0.1,0.1-0.3,0.1-0.4,0.2
			c-0.1,0-0.1,0.1-0.2,0.1c-0.1,0-0.2,0-0.3-0.1c-0.1-0.1-0.1-0.2-0.2-0.3c0,0,0-0.1,0-0.1c0,0,0-0.1-0.1-0.1c0,0,0,0.1-0.1,0.1
			s-0.1,0.1-0.1,0.1c-0.1,0.1-0.1,0.1-0.2,0.2c-0.1,0.1-0.1,0.1-0.2,0.2c-0.1,0.1-0.2,0.2-0.3,0.2c-0.1,0-0.2,0.1-0.2,0.1
			c-0.1,0-0.2,0-0.3-0.1c-0.1-0.1-0.1-0.2-0.1-0.3c0-0.1,0-0.2,0-0.3c0,0,0-0.1,0-0.1c0-0.1,0-0.1,0-0.2c0,0,0,0,0,0h0l-0.2,0.2
			c0,0,0,0,0,0.1c0,0,0,0.1-0.1,0.1c0,0,0-0.1,0-0.1C491.6,310.7,491.5,310.7,491.5,310.6L491.5,310.6z M494.5,310.6L494.5,310.6
			c0.1-0.1,0.1-0.1,0.1-0.1c0,0,0.1-0.1,0.1-0.1c0,0,0.1-0.1,0.1-0.1c0,0,0.1-0.1,0.1-0.1c0.2-0.1,0.3-0.3,0.5-0.4
			c0.1-0.1,0.2-0.1,0.2-0.2c0.1-0.1,0.2-0.1,0.2-0.1c0.1-0.1,0.2-0.2,0.3-0.2c0.1-0.1,0.2-0.1,0.3-0.1c0,0,0.1,0,0.1,0
			c0,0,0,0,0,0.1v0.2c0,0.1,0,0.1-0.1,0.2c0,0.1-0.1,0.1-0.2,0.1c-0.1,0-0.1,0-0.2,0.1c-0.1,0-0.1,0.1-0.2,0.1c0,0-0.1,0.1-0.1,0.1
			c-0.1,0.1-0.2,0.1-0.3,0.3c-0.1,0-0.1,0.1-0.2,0.1l-0.1,0.1c0,0,0,0.1,0,0.1c0,0.1,0,0.1,0,0.2c0,0.1,0,0.1,0,0.1
			c0,0,0,0.1,0.1,0.1c0,0,0.1,0,0.1,0.1c0,0,0.1,0,0.1,0c0,0,0.1,0,0.1,0c0.1,0,0.1,0,0.2,0c0.1,0,0.2-0.1,0.3-0.1
			c0.1-0.1,0.2-0.1,0.3-0.2c0,0,0,0,0,0s0,0,0.1,0c0,0,0.1-0.1,0.1-0.1c0,0,0.1-0.1,0.1-0.1c0.1,0.1,0.1,0.2,0.1,0.3l-0.3,0.2
			c-0.1,0.1-0.2,0.1-0.3,0.2c0,0-0.1,0.1-0.1,0.1c-0.1,0.1-0.3,0.2-0.4,0.3c-0.2,0.1-0.4,0.1-0.5,0.1c0,0-0.1,0-0.1,0
			c0,0-0.1,0-0.1,0c-0.1-0.1-0.1-0.1-0.2-0.1c-0.1,0-0.1-0.1-0.1-0.1c0,0-0.1-0.1-0.1-0.1c0,0,0-0.1,0-0.1c0-0.1,0-0.1,0-0.2
			c0,0,0-0.1,0-0.1c0,0,0-0.1,0-0.1c0-0.1,0-0.1-0.1-0.2C494.6,310.7,494.6,310.7,494.5,310.6L494.5,310.6z M497,310.4l0.3-0.2
			c0,0,0,0,0-0.1c0,0,0.1-0.1,0.1-0.1l0.1-0.1c0,0,0.1,0,0.1-0.1s0,0,0.1-0.1c0,0,0.1-0.1,0.1-0.1c0,0,0.1,0,0.1-0.1
			c0.1,0,0.1-0.1,0.1-0.1c0.2-0.2,0.4-0.3,0.6-0.5c0.1-0.1,0.3-0.1,0.4-0.2c0,0,0.1,0,0.1,0c0,0,0,0.1,0,0.1c0,0,0,0.1,0,0.1
			c0,0,0,0.1-0.1,0.1c-0.1,0-0.1,0.1-0.2,0.1c0,0.1-0.1,0.1-0.1,0.1c-0.1,0.1-0.1,0.1-0.2,0.2c0,0,0,0.1-0.1,0.1l-0.1,0.1
			c0,0-0.1,0.1-0.1,0.1c0,0.1-0.1,0.1-0.2,0.2c-0.1,0.1-0.2,0.2-0.3,0.3c0,0,0,0.1-0.1,0.1s-0.1,0.1-0.2,0.2l0,0
			c0.1,0,0.1,0,0.2-0.1c0.1,0,0.1-0.1,0.2-0.2c0.1-0.1,0.2-0.1,0.2-0.2c0,0,0.1-0.1,0.1-0.1c0,0,0,0,0,0s0,0,0.1,0
			c0.1-0.1,0.2-0.2,0.3-0.3c0.1-0.1,0.2-0.1,0.3-0.1c0,0,0.1,0,0.1,0.1c0,0.1,0,0.1,0,0.2c0,0.1,0,0.2,0,0.4c0,0.1,0,0.1,0.1,0.2
			c0,0.1,0.1,0.1,0.2,0.1c0,0,0,0,0.1,0c0,0,0.1,0,0.1-0.1c0,0,0,0,0-0.1c0,0,0,0,0-0.1c0,0,0,0,0,0l0,0c0,0.1,0.1,0.1,0.1,0.2
			c0,0,0,0.1,0.1,0.1c-0.1,0.1-0.1,0.1-0.2,0.2c-0.1,0-0.1,0.1-0.2,0.1c-0.1,0.1-0.1,0.1-0.2,0.1c-0.1,0-0.1,0-0.2,0
			c-0.1,0-0.3,0-0.4-0.1c-0.1-0.1-0.1-0.3-0.1-0.4c0,0,0,0,0-0.1s0,0,0-0.1c0,0,0,0,0,0c0,0,0,0-0.1,0.1c0,0-0.1,0.1-0.1,0.1
			c0,0-0.1,0.1-0.2,0.1c-0.1,0.1-0.1,0.1-0.2,0.2c0,0-0.1,0.1-0.1,0.1c-0.1,0.1-0.1,0.1-0.2,0.1c-0.1,0-0.1,0.1-0.2,0.1
			c0,0-0.1,0-0.1,0.1c0,0,0,0-0.1,0c-0.1,0-0.2,0-0.3-0.1c-0.1-0.1-0.1-0.2-0.1-0.3c0-0.1,0-0.1,0-0.2c0-0.1,0.1-0.1,0.1-0.2
			c0,0,0,0,0-0.1c0,0,0,0,0,0c0,0,0,0,0,0c0,0,0-0.1-0.1-0.1c0,0,0-0.1-0.1-0.1c0,0,0,0,0-0.1C496.9,310.5,496.9,310.5,497,310.4
			L497,310.4z M499.6,310.6L499.6,310.6c0-0.1,0.1-0.1,0.1-0.1c0,0,0.1-0.1,0.1-0.1c0.2-0.2,0.4-0.4,0.5-0.6
			c0.2-0.2,0.3-0.5,0.5-0.8c0,0,0-0.1,0.1-0.1c0-0.1,0.1-0.1,0.1-0.2v0c0,0,0,0,0,0c0,0,0,0-0.1,0c0,0,0,0-0.1,0h-0.6c0,0,0,0-0.1,0
			s0,0-0.1,0c0,0-0.1,0-0.1,0c0,0,0,0,0-0.1c0-0.1,0-0.2,0-0.3c0-0.1,0.1-0.1,0.1-0.1s0.1,0,0.2,0c0.1,0,0.1,0,0.1,0
			c0,0,0.1,0,0.1,0c0.1,0,0.1,0,0.2,0c0,0,0.1,0,0.1,0c0,0,0.1,0,0.1,0c0,0,0.1,0,0.1,0l0.1,0c0.1,0,0.2-0.1,0.3-0.4
			c0.1-0.2,0.2-0.3,0.3-0.3c0,0,0.1,0,0.1,0c0,0,0,0.1,0,0.2c0,0.1,0,0.2,0,0.2c0,0.1-0.1,0.1-0.1,0.2c0,0,0,0,0,0c0,0,0,0,0,0
			s0,0,0,0v0.1c0,0.1,0,0.2,0,0.3c0,0.1,0,0.1-0.1,0.1l-0.3,0c0,0,0,0.1,0,0.1c0,0,0,0.1,0,0.1c-0.1,0.2-0.1,0.3-0.1,0.5
			c0,0.2-0.1,0.4-0.2,0.7c0,0.2-0.1,0.3-0.1,0.5c0,0.1,0,0.2,0,0.3c0,0,0,0.1,0,0.1c0,0,0,0,0.1,0c0,0,0.1,0,0.2-0.1
			c0.1-0.1,0.3-0.2,0.4-0.3l0.2,0.3c0,0-0.1,0.1-0.1,0.1c0,0-0.1,0.1-0.2,0.1l-0.1,0.1c0,0-0.1,0.1-0.1,0.1c0,0-0.1,0.1-0.1,0.1
			l-0.1,0.1c0,0.1-0.1,0.1-0.2,0.1c0,0-0.1,0-0.1,0c-0.1,0-0.2,0-0.2-0.1c-0.1-0.1-0.1-0.2-0.1-0.3c0-0.1,0-0.3,0-0.4
			c0-0.1,0-0.2,0.1-0.3c0,0,0,0,0,0c0,0,0-0.1,0-0.1c0,0,0-0.1,0-0.1c0-0.1,0-0.2,0.1-0.3c0-0.1,0-0.1,0.1-0.2c0,0,0,0,0,0l0,0
			c0,0.1-0.1,0.1-0.1,0.2c-0.1,0.1-0.1,0.1-0.2,0.2c-0.1,0.1-0.2,0.2-0.4,0.4c0,0,0,0,0,0.1c0,0,0,0.1-0.1,0.1c0,0,0-0.1,0-0.1
			C499.7,310.8,499.7,310.7,499.6,310.6C499.7,310.7,499.7,310.7,499.6,310.6C499.6,310.6,499.6,310.6,499.6,310.6L499.6,310.6z
			 M501.7,310.6L501.7,310.6L501.7,310.6c0.1-0.2,0.2-0.3,0.4-0.4c0.1-0.1,0.2-0.2,0.3-0.3c0,0,0-0.1,0.1-0.1c0,0,0.1,0,0.1,0
			c0.1,0,0.2,0,0.2,0.1c0.1,0,0.1,0.1,0.1,0.2c0,0.1,0,0.2,0,0.2c0,0.1,0,0.1,0,0.2c0,0.1,0,0.1,0.1,0.2c0,0.1,0,0.1,0.1,0.2
			c0,0,0,0,0.1,0c0,0,0,0,0.1,0c0,0,0.1,0,0.1,0c0.1,0,0.1-0.1,0.1-0.1c0,0,0.1-0.1,0.1-0.1c0,0,0.1-0.1,0.1-0.1l0.2,0.3
			c0,0.1-0.1,0.1-0.2,0.1c-0.1,0-0.1,0.1-0.2,0.2c-0.1,0.1-0.2,0.1-0.3,0.2c0,0-0.1,0.1-0.2,0.1c-0.1,0-0.3,0-0.4-0.1
			c-0.1-0.1-0.2-0.3-0.2-0.4c0,0,0,0,0-0.1c0,0,0-0.1-0.1-0.1c0,0-0.1-0.1-0.1-0.1c0,0,0,0-0.1,0c-0.1,0-0.1,0-0.2,0.1
			c-0.1,0.1-0.2,0.2-0.2,0.2c0,0,0-0.1,0-0.1C501.7,310.8,501.7,310.7,501.7,310.6C501.7,310.7,501.7,310.6,501.7,310.6
			C501.7,310.6,501.7,310.6,501.7,310.6L501.7,310.6z M503.2,307.7c0,0,0.1,0,0.1,0c0,0,0,0.1,0,0.1c0,0.1,0,0.1,0,0.2
			c0,0.1,0,0.2-0.1,0.2c0,0,0,0.1,0,0.1c0,0.1,0,0.1-0.1,0.1c0,0-0.1,0.1-0.1,0.1c-0.1,0-0.1,0.1-0.1,0.1c0,0-0.1,0-0.1,0
			c0,0-0.1,0-0.1,0c0,0-0.1,0-0.1,0c0,0-0.1-0.1-0.1-0.1c0-0.1,0-0.1,0-0.2c0-0.1,0.1-0.2,0.1-0.3c0.1-0.1,0.2-0.2,0.2-0.2
			c0-0.1,0.1-0.1,0.2-0.2c0,0,0.1,0,0.1,0C503.1,307.7,503.1,307.7,503.2,307.7L503.2,307.7z M503.7,310.6
			C503.8,310.6,503.8,310.6,503.7,310.6c0.1-0.1,0.1-0.1,0.1-0.2l0.3-0.2c0.1-0.1,0.1-0.1,0.2-0.1c0.1-0.1,0.2-0.1,0.3-0.2
			c0,0,0-0.1,0.1-0.1c0,0,0.1-0.1,0.1-0.1c0,0,0.1-0.1,0.1-0.1c0,0,0.1,0,0.1-0.1s0.1-0.1,0.1-0.1c0,0,0.1-0.1,0.1-0.1
			c0,0,0.1-0.1,0.1-0.1c0,0,0.1,0,0.1,0c0.1,0,0.1,0,0.1,0c0,0,0,0,0,0.1c0,0.1-0.1,0.1-0.1,0.2l0,0c0.1,0,0.2-0.1,0.3-0.1
			c0,0,0.1,0,0.1,0c0.2,0,0.3,0,0.4,0.1c0.1,0.1,0.1,0.3,0.1,0.5c0,0.1,0,0.1,0,0.1c0,0.1,0,0.1,0,0.2c0,0.1-0.1,0.1-0.1,0.2
			c0,0,0,0.1-0.1,0.1c0,0,0,0,0,0.1s0,0,0.1,0c0,0,0,0,0.1,0c0,0,0,0,0.1,0c0,0,0,0.1,0.1,0.2c0,0.1,0,0.1,0.1,0.2
			c0,0-0.1,0.1-0.1,0.1c0,0-0.1,0.1-0.1,0.1c0,0-0.1,0.1-0.2,0.1c0,0-0.1,0-0.1,0c-0.1,0-0.1,0-0.2,0c0,0-0.1-0.1-0.1-0.1
			c-0.1,0.1-0.1,0.2-0.2,0.2c-0.1,0.1-0.2,0.1-0.3,0.2c-0.1,0-0.1,0.1-0.2,0.1c0,0-0.1,0-0.1,0c0,0,0,0-0.1,0c0,0-0.1,0-0.1,0
			c-0.1,0-0.3-0.1-0.4-0.2c-0.1-0.1-0.2-0.2-0.2-0.4c0-0.1,0-0.2,0-0.2c0-0.1,0-0.1,0-0.2c0,0,0,0,0,0s0,0,0,0s0,0-0.1,0
			c0,0-0.1,0.1-0.2,0.2c0,0,0,0,0,0c0,0,0,0,0,0.1c0-0.1,0-0.1-0.1-0.2C503.8,310.7,503.8,310.7,503.7,310.6L503.7,310.6z
			 M505.5,309.9C505.5,310,505.4,310,505.5,309.9c-0.1,0.1-0.1,0.1-0.1,0.1c0,0.1-0.1,0.1-0.1,0.2c0,0-0.1,0-0.1,0.1
			c0,0-0.1,0-0.1,0c0,0,0,0-0.1,0.1c0,0.1-0.1,0.1-0.1,0.2c0,0.1,0,0.1-0.1,0.2c0,0,0,0.1,0,0.1c0,0.1,0,0.1,0,0.2c0,0,0.1,0,0.2,0
			c0.1,0,0.2,0,0.3-0.1c0.1-0.1,0.2-0.2,0.3-0.3c0,0,0.1-0.1,0.1-0.1c0,0,0,0,0-0.1s0-0.1,0-0.1l0.1-0.2c0-0.1,0-0.1-0.1-0.2
			c0,0,0-0.1-0.1-0.1c0,0-0.1,0-0.1,0C505.6,310,505.6,309.9,505.5,309.9L505.5,309.9z M506.4,310.6
			C506.4,310.6,506.4,310.6,506.4,310.6c0.1-0.1,0.1-0.1,0.1-0.1c0,0,0.1-0.1,0.1-0.1l0.1-0.1c0.1-0.1,0.1-0.1,0.2-0.2
			c0.1-0.1,0.2-0.2,0.2-0.3c0-0.1,0.1-0.1,0.1-0.2c0.1-0.1,0.1-0.1,0.2-0.2c0.1-0.1,0.1-0.1,0.2-0.2c0.1,0,0.2-0.1,0.2-0.1
			c0.1,0,0.1,0,0.2,0.1c0,0.1,0.1,0.1,0.1,0.2c0,0.1,0,0.2-0.1,0.3c0,0.1-0.1,0.4-0.2,0.6c0,0.1,0,0.1-0.1,0.1c0,0,0,0,0,0.1v0.1
			c0,0,0,0,0,0c0,0,0,0,0,0s0,0,0,0c0,0,0.1-0.1,0.1-0.1c0,0,0.1-0.1,0.2-0.1c0,0,0.1-0.1,0.1-0.1c0,0,0.1-0.1,0.1-0.1
			c0,0,0,0,0-0.1c0,0,0,0,0.1-0.1c0,0,0.1-0.1,0.1-0.1c0.1,0,0.1-0.1,0.2-0.1c0.1,0,0.1-0.1,0.2-0.1c0,0,0.1,0,0.1,0
			c0.1,0,0.1,0,0.2,0.1c0.1,0,0.1,0.1,0.2,0.2c0,0.1,0.1,0.3,0.1,0.4c0,0.1,0.1,0.1,0.1,0.2c0,0,0.1,0.1,0.1,0.1c0,0,0.1,0,0.1,0
			c0,0,0,0,0.1,0l0.2,0.3c0,0-0.1,0.1-0.1,0.1c0,0-0.1,0.1-0.1,0.1c0,0-0.1,0.1-0.2,0.1c0,0-0.1,0-0.2,0c-0.1,0-0.1,0-0.2,0
			c0,0-0.1-0.1-0.1-0.1c0,0-0.1-0.1-0.1-0.1c0-0.1-0.1-0.1-0.1-0.2c0,0-0.1-0.1-0.1-0.1c-0.1-0.1-0.1-0.1-0.1-0.2l0,0
			c0,0-0.1,0-0.1,0.1c0,0-0.1,0.1-0.1,0.1c-0.1,0.1-0.2,0.1-0.2,0.2c0,0-0.1,0.1-0.1,0.1c0,0.1-0.1,0.2-0.2,0.2
			c-0.1,0.1-0.2,0.2-0.3,0.3l-0.1,0.1l-0.1,0.1c0,0-0.1,0-0.1,0.1c0,0-0.1,0-0.1,0c-0.1,0-0.2,0-0.2-0.1s0-0.1,0-0.2
			c0.1-0.1,0.1-0.2,0.1-0.4c0-0.1,0.1-0.3,0.2-0.5c0,0,0,0,0,0s0,0,0-0.1s0-0.1,0-0.1v-0.1c0,0,0,0,0,0c0,0,0,0-0.1,0
			c0,0-0.1,0-0.1,0c-0.1,0-0.1,0.1-0.2,0.2l-0.2,0.2c0,0,0,0.1-0.1,0.1c0,0-0.1,0-0.1,0.1c0,0-0.1,0.1-0.1,0.1c0,0,0,0,0,0
			c0,0,0,0,0,0.1c0,0,0-0.1,0-0.1C506.4,310.7,506.4,310.7,506.4,310.6L506.4,310.6z M510.6,308.5
			C510.6,308.5,510.5,308.5,510.6,308.5C510.5,308.4,510.5,308.4,510.6,308.5c0-0.2,0-0.4,0.1-0.6c0.1-0.2,0.1-0.5,0.2-0.7
			c0,0,0-0.1,0-0.1c0,0,0-0.1,0-0.1c0-0.1,0-0.2,0.1-0.3c0-0.1,0.1-0.1,0.2-0.1c0.1,0,0.1,0,0.2,0c0.1,0,0.1,0.1,0.1,0.1
			c0,0,0,0.1,0,0.1c0,0.1,0,0.1,0.1,0.3c0,0,0,0.1,0,0.1c0,0,0,0.1-0.1,0.1c0,0,0,0.1-0.1,0.1c0,0,0,0.1,0,0.1
			c-0.1,0.2-0.2,0.5-0.3,0.7c-0.1,0.1-0.2,0.2-0.3,0.2L510.6,308.5z"/>
	</g>
</g>
</svg>
