<?xml version="1.0" encoding="utf-8"?>
<!-- Generator: Adobe Illustrator 16.0.0, SVG Export Plug-In . SVG Version: 6.00 Build 0)  -->
<!DOCTYPE svg PUBLIC "-//W3C//DTD SVG 1.1//EN" "http://www.w3.org/Graphics/SVG/1.1/DTD/svg11.dtd">
<svg version="1.1" id="Layer_1" xmlns:xodm="http://www.corel.com/coreldraw/odm/2003"
	 xmlns="http://www.w3.org/2000/svg" xmlns:xlink="http://www.w3.org/1999/xlink" x="0px" y="0px" width="120px" height="48px"
	 viewBox="0 0 120 48" enable-background="new 0 0 120 48" xml:space="preserve">
<g id="Layer_x0020_1">
	<path fill="#F7941E" d="M13.951,40.162c0,3.479,1.664,7.751,7.373,7.751c5.331,0,7.334-3.856,7.334-7.826
		c0-4.386-2.382-7.826-7.372-7.826C16.597,32.261,13.951,35.323,13.951,40.162L13.951,40.162z M17.126,40.087
		c0-2.23,0.719-5.218,4.197-5.218c3.743,0,4.159,3.441,4.159,5.18c0,4.348-2.571,5.218-4.159,5.218c-1.853,0-2.949-1.021-3.44-1.89
		C17.505,42.771,17.126,41.788,17.126,40.087L17.126,40.087z M33.081,47.648h3.025v-6.314h0.643c2.042,0,2.23,0.303,4.083,3.025
		l2.193,3.289h3.667l-1.853-2.949c-1.512-2.457-2.117-2.986-3.365-3.705v-0.037c0.567-0.076,1.172-0.228,1.701-0.492
		c1.475-0.605,2.306-2.041,2.306-3.705c0-1.475-0.718-3.213-2.495-3.855c-0.454-0.152-1.21-0.379-3.479-0.379h-6.465v15.123H33.081z
		 M36.106,35.059h2.419c2.042,0,2.42,0,2.987,0.34c0.605,0.341,0.794,0.945,0.794,1.551c0,0.453-0.113,1.398-1.172,1.777
		c-0.529,0.188-1.815,0.188-2.76,0.188h-2.269V35.059L36.106,35.059z M64.008,47.648l-6.125-15.123h-3.214l-5.936,15.123h3.289
		l1.248-3.44h6.049l1.323,3.44H64.008L64.008,47.648z M54.178,41.675l2.08-5.634l2.079,5.634H54.178L54.178,41.675z M67.6,47.648
		h2.835v-9.867h0.075l6.05,9.867h3.063V32.525h-2.835V42.62h-0.039l-6.162-10.095H67.6V47.648L67.6,47.648z M91.683,42.091h3.516
		v1.89c-0.415,0.303-1.814,1.286-3.591,1.286c-3.592,0-4.349-3.101-4.349-5.368c0-1.135,0.151-2.345,0.832-3.328
		c0.87-1.285,2.269-1.701,3.554-1.701c0.907,0,2.798,0.303,3.402,2.383l3.063-0.568c-0.832-3.705-4.045-4.423-6.502-4.423
		c-5.482,0-7.524,4.083-7.524,7.788c0,3.971,2.231,7.864,7.713,7.864c3.063,0,5.595-1.513,6.503-2.382V39.52h-6.616V42.091
		L91.683,42.091z M103.213,47.648h11.531v-2.57h-8.469v-4.084h7.638v-2.57h-7.638v-3.365h8.205v-2.533h-11.268V47.648
		L103.213,47.648z"/>
	<path fill="#231F20" d="M5.028,27.156v-0.037c-0.87-0.453-1.437-1.361-1.437-2.42c0-1.058,0.567-1.966,1.475-2.419l0.038-3.781
		l2.874,1.021l-0.151,2.873v0.038c0.756,0.491,1.248,1.323,1.248,2.268c0,0.908-0.416,1.701-1.096,2.193l0.038,0.416v0.037
		l1.286,9.83H3.97l1.059-9.98V27.156z M0,16.684l13.762,4.915c0,0,14.48-8.506,31.985,0l13.648-4.915L29.716,0.087L0,16.684z"/>
	<path fill="#231F20" d="M13.8,31.467h0.151c0,0,1.097-3.1,5.066-4.271c3.97-1.135,8.128-0.266,10.775,5.104
		c0,0,3.024-4.877,5.633-5.18c2.646-0.303,5.293-1.021,9.036,2.42c0,0,0.87,0.945,1.285,1.928v-8.166c0,0-6.276-3.101-10.775-3.479
		c-4.537-0.416-8.809-1.172-16.635,1.475c0,0-4.121,1.55-4.575,1.815L13.8,31.467z"/>
</g>
</svg>
